<?xml version="1.0" encoding="utf-8"?>
<!-- Generator: Adobe Illustrator 22.1.0, SVG Export Plug-In . SVG Version: 6.00 Build 0)  -->
<svg version="1.2" baseProfile="tiny" id="Layer_1" xmlns="http://www.w3.org/2000/svg" xmlns:xlink="http://www.w3.org/1999/xlink"
	 x="0px" y="0px" width="2000px" height="700px" viewBox="0 0 2000 700" xml:space="preserve">
<g>
	<g>
		<path fill="#FFFFFF" d="M500,407.7c20.6-11.9,33.3-33.9,33.3-57.7s-12.7-45.8-33.3-57.7L250,147.9c-20.6-11.9-46-11.9-66.7,0
			c-20.6,11.9-33.3,33.9-33.3,57.7v288.7c0,23.8,12.7,45.8,33.3,57.7c20.6,11.9,46,11.9,66.7,0L500,407.7z"/>
		<circle fill="none" cx="300" cy="350" r="300"/>
	</g>
	<g>
		<line fill="none" stroke="#F05A23" stroke-width="12" stroke-miterlimit="10" x1="183.5" y1="552.2" x2="300" y2="350"/>
		<circle fill="#FFFFFF" cx="300" cy="350" r="142"/>
	</g>
	<g>
		<path fill="#F3F3F5" d="M767.2,294.6c0-5.9,2.8-8.8,8.3-8.8h7.1c4.8,0,8.3,2,10.3,5.9c2.9,5.7,5,13.6,6.3,23.6
			c0,0.2,0.1,0.2,0.2,0.2c0.1,0,0.4-1.4,0.9-4.2c0.4-2.8,1.7-6.2,3.8-10.2s4.7-7.4,7.8-10.2c6.2-5.5,13.9-8.2,23-8.2
			c10.1,0,17.2,1.6,21.1,4.7c1.8,1.4,2.6,3.3,2.2,5.8l-2.1,15.4c-0.5,4.2-2.8,6.2-6.9,6.2c-1.9,0-4.3-0.4-7.1-1.1
			c-5.5-1.3-9.8-2-12.9-2c-3.2,0-6.5,1.3-10,3.9c-3.5,2.6-6.6,5.8-9.1,9.6c-5.2,8-7.8,16.5-7.8,25.6v65c0,2.3-0.7,4.2-2.1,5.8
			c-1.4,1.6-3.4,2.3-6.1,2.3h-15.3c-2.8,0-4.9-0.8-6.4-2.3c-1.5-1.5-2.2-3.5-2.2-5.8v-84.3c0-14.4-0.5-23.8-1.5-28.5
			C767.7,298.4,767.2,295.6,767.2,294.6z"/>
		<path fill="#F3F3F5" d="M863,354.3c0-10.6,1.9-20.3,5.7-29.2c3.8-8.9,9.1-16.4,15.8-22.7c14-13.1,31.6-19.7,52.9-19.7
			c23.8,0,42.3,6.6,55.4,19.7c12.7,12.7,19,30,19,52.1c0,21.4-7.2,38.8-21.5,52.4c-14,13.3-31.6,20-52.9,20
			c-22.4,0-40.5-6.8-54.1-20.4C869.8,393.2,863,375.8,863,354.3z M905.4,323.2c-3.3,4.5-5.7,9.7-7.2,15.4
			c-1.5,5.8-2.2,11.6-2.2,17.5c0,5.9,0.9,11.6,2.6,17c1.7,5.4,4.3,10.3,7.7,14.5c7.6,9.3,18.1,14,31.7,14c13.8,0,24.3-4.6,31.4-13.7
			c6.3-8,9.5-18.9,9.5-32.7c0-20.6-7.3-34.9-21.9-42.7c-5.4-2.9-11.9-4.3-19.5-4.3c-7.6,0-14,1.4-19.3,4.1
			C913,315,908.7,318.7,905.4,323.2z"/>
		<path fill="#F3F3F5" d="M1231.8,361.6l-0.1,2.3c0,11.2,3.8,20.2,11.5,26.9c8,7.2,18.9,10.8,32.6,10.8c12.5,0,24.1-3.5,34.8-10.4
			c2-1.3,3.8-2,5.4-2c3.3,0,5.7,1.5,7.4,4.5l3.6,6.9c0.8,1.6,1.2,3.4,1.2,5.3c0,1.9-0.9,3.8-2.7,5.8c-1.8,2-4.2,3.8-7.1,5.4
			c-2.9,1.6-6.3,3.1-10.1,4.3s-7.8,2.2-11.8,3.1c-8.1,1.6-16.5,2.4-25.3,2.4c-8.8,0-17.7-1.6-26.6-4.7c-8.9-3.1-16.7-7.6-23.2-13.6
			c-14-12.6-21-29.7-21-51.3c0-37.8,14.3-61.3,43-70.5c9-2.9,18.2-4.3,27.7-4.3c9.5,0,17.5,0.9,24.2,2.8c6.6,1.9,12.4,4.7,17.2,8.3
			c10.2,7.8,15.3,18.6,15.3,32.4c0,13.6-6,24-18,31.2c-10.5,6.3-24.3,9.4-41.4,9.4C1257.8,366.8,1245.6,365.1,1231.8,361.6z
			 M1296.8,325.8c0-11.7-8.4-17.5-25.3-17.5c-16.1,0-27.4,5.5-33.8,16.4c-2.3,3.8-3.8,8.6-4.5,14.2c7.6,3.5,17.2,5.3,28.9,5.3
			C1285.2,344.2,1296.8,338.1,1296.8,325.8z"/>
		<path fill="#F3F3F5" d="M1387.2,390.2c0,5.8,2.2,8.7,6.6,8.7c1.4,0,3.2-0.4,5.4-1.1c4-1.4,6.5-2.1,7.4-2.1c2,0,3.6,1.2,4.8,3.5
			l4.1,8.7c0.5,1.2,0.8,2.4,0.8,3.4c0,1.9-1.7,4.2-5,6.9c-6.7,5.1-15.4,7.7-26.3,7.7c-19.7,0-29.6-12.2-29.6-36.6V214.8
			c0-2.2,0.7-4.1,2.1-5.6c1.4-1.5,3.1-2.3,5-2.3h17.7c2,0,3.7,0.8,5,2.3c1.3,1.6,2,3.4,2,5.6V390.2z"/>
		<path fill="#F3F3F5" d="M1464.9,390.2c0,5.8,2.2,8.7,6.6,8.7c1.4,0,3.2-0.4,5.4-1.1c4-1.4,6.5-2.1,7.4-2.1c2,0,3.6,1.2,4.8,3.5
			l4.1,8.7c0.5,1.2,0.8,2.4,0.8,3.4c0,1.9-1.7,4.2-5,6.9c-6.7,5.1-15.4,7.7-26.3,7.7c-19.7,0-29.6-12.2-29.6-36.6V214.8
			c0-2.2,0.7-4.1,2.1-5.6c1.4-1.5,3.1-2.3,5-2.3h17.7c2,0,3.7,0.8,5,2.3c1.3,1.6,2,3.4,2,5.6V390.2z"/>
		<path fill="#F3F3F5" d="M1531.2,361.6l-0.1,2.3c0,11.2,3.8,20.2,11.5,26.9c8,7.2,18.9,10.8,32.6,10.8c12.5,0,24.1-3.5,34.8-10.4
			c2-1.3,3.8-2,5.4-2c3.3,0,5.7,1.5,7.4,4.5l3.6,6.9c0.8,1.6,1.2,3.4,1.2,5.3c0,1.9-0.9,3.8-2.7,5.8c-1.8,2-4.2,3.8-7.1,5.4
			c-2.9,1.6-6.3,3.1-10.1,4.3s-7.8,2.2-11.8,3.1c-8.1,1.6-16.5,2.4-25.3,2.4c-8.8,0-17.7-1.6-26.6-4.7c-8.9-3.1-16.7-7.6-23.2-13.6
			c-14-12.6-21-29.7-21-51.3c0-37.8,14.3-61.3,43-70.5c9-2.9,18.2-4.3,27.7-4.3c9.5,0,17.5,0.9,24.2,2.8c6.6,1.9,12.4,4.7,17.2,8.3
			c10.2,7.8,15.3,18.6,15.3,32.4c0,13.6-6,24-18,31.2c-10.5,6.3-24.3,9.4-41.4,9.4C1557.2,366.8,1545,365.1,1531.2,361.6z
			 M1596.1,325.8c0-11.7-8.4-17.5-25.3-17.5c-16.1,0-27.4,5.5-33.8,16.4c-2.3,3.8-3.8,8.6-4.5,14.2c7.6,3.5,17.2,5.3,28.9,5.3
			C1584.6,344.2,1596.1,338.1,1596.1,325.8z"/>
		<path fill="#F3F3F5" d="M1651.6,294.6c0-5.9,2.8-8.8,8.3-8.8h7.1c4.8,0,8.3,2,10.3,5.9c2.9,5.7,5,13.6,6.3,23.6
			c0,0.2,0.1,0.2,0.2,0.2c0.1,0,0.4-1.4,0.9-4.2c0.4-2.8,1.7-6.2,3.8-10.2s4.7-7.4,7.8-10.2c6.2-5.5,13.9-8.2,23-8.2
			c10.1,0,17.2,1.6,21.1,4.7c1.8,1.4,2.6,3.3,2.2,5.8l-2.1,15.4c-0.5,4.2-2.8,6.2-6.9,6.2c-1.9,0-4.3-0.4-7.1-1.1
			c-5.5-1.3-9.8-2-12.9-2c-3.2,0-6.5,1.3-10,3.9c-3.5,2.6-6.6,5.8-9.1,9.6c-5.2,8-7.8,16.5-7.8,25.6v65c0,2.3-0.7,4.2-2.1,5.8
			c-1.4,1.6-3.4,2.3-6.1,2.3h-15.3c-2.8,0-4.9-0.8-6.4-2.3c-1.5-1.5-2.2-3.5-2.2-5.8v-84.3c0-14.4-0.5-23.8-1.5-28.5
			C1652.1,298.4,1651.6,295.6,1651.6,294.6z"/>
		<path fill="#F3F3F5" d="M1801.3,401.8c16.9,0,25.3-5.3,25.3-15.8c0-5.8-4.8-10.7-14.4-14.7c-4-1.7-8.5-3.3-13.3-4.8
			c-4.8-1.5-9.4-3.2-13.8-5.3c-4.4-2-8.5-4.3-12.3-6.7c-3.8-2.4-7.2-5.2-10-8.3c-5.8-6.5-8.7-14.8-8.7-24.8c0-12.2,5.5-22,16.5-29.1
			c9.8-6.4,21.8-9.7,36-9.7c15.3,0,28.1,2.8,38.4,8.3c3.5,2,5.3,4.2,5.3,6.7c0,3.6-1,7.5-3.1,11.8c-2.1,4.3-4.5,6.4-7.3,6.4
			c-2.8,0-5.3-0.5-7.5-1.6c-2.2-1.1-4.3-2-6.1-2.8c-1.8-0.8-3.7-1.4-5.7-1.9c-4.4-1.2-8.5-1.8-12.2-1.8c-3.7,0-6.8,0.2-9,0.7
			c-2.3,0.5-4.4,1.3-6.2,2.3c-4.5,2.5-6.7,5.6-6.7,9.3c0,3.7,0.9,6.5,2.7,8.4c1.8,2,4.3,3.8,7.5,5.4c3.2,1.6,7,3.3,11.4,4.9
			l14.3,5.5c11.5,4.7,19.3,8.9,23.4,12.6c7.9,7.5,11.9,16.2,11.9,26.1c0,12.4-4.6,22.6-13.7,30.6c-10.1,8.7-24.5,13.1-43.2,13.1
			c-18.9,0-33.1-3.4-42.6-10.2c-4.7-3.3-7-6.2-7-8.8c0-2.6,0.5-5,1.5-7c1-2.1,2.3-4.5,4-7.3c1.6-2.8,3.8-4.2,6.6-4.2
			c2.8,0,5.7,1.2,8.8,3.5c3.1,2.3,7.4,4.4,12.9,6.2C1790.3,400.9,1795.8,401.8,1801.3,401.8z"/>
		<path fill="#F3F3F5" d="M729.3,302.4c-5-6-12.5-10.8-20-14.3c-7.6-3.5-16.2-5.2-25.8-5.2c-9.6,0-18.2,1.6-25.8,4.9
			c-10.6,4.6-19.4,9.9-25.6,19.8c-1.2-7.3-2.7-11.2-5.1-15.8c-2-3.9-5.5-5.9-10.3-5.9h-8.1c-2.6,0-4.6,0.8-6.3,2.3
			c-1.6,1.6-2.4,3.3-2.4,5.1c0,1.9,0.1,3.3,0.4,4.4c2.6,10.5,4,27.3,4,50.2v135.5c0,6.4,2.8,9.5,8.3,9.5H629c5.2,0,7.8-3,7.8-9.1
			v-50.6c0-12.2-0.4-18.9-1.3-27c9.8,16.2,24.6,20.7,44.5,20.7c19.1,0,39.4-7.7,51.2-23.1c11.2-14.5,14.7-32.3,14.7-53.4
			C745.8,330.5,739.3,314.4,729.3,302.4z M711.9,387.9c-13.8,17.7-34,15.2-35.8,15.1c-2.2-0.2-8.2-1.2-13.5-3.1
			c-7.2-2.6-13.5-6.2-18.4-12.2c-1.7-2.1-3.3-4.4-4.6-6.9c-3.8-6.4-5.7-13.6-5.7-21.5v-6.7c0-5.6,0.9-11,2.8-15.9
			c1.5-4.9,3.7-9.4,6.6-13.4c3.3-4.5,7.6-8.2,12.8-10.9c8.7-4.5,18.3-4.7,24.4-4.5c7.9,0.3,13.7,1.9,19,4.7
			c14.6,7.8,21.9,22.1,21.9,42.7C721.4,369,718.2,379.9,711.9,387.9z"/>
		<path fill="#F3F3F5" d="M1163.4,302.4c-5-6-12.5-10.8-20-14.3c-7.6-3.5-16.2-5.2-25.8-5.2c-9.6,0-18.2,1.6-25.8,4.9
			c-10.6,4.6-19.4,9.9-25.6,19.8c-1.2-7.3-2.7-11.2-5.1-15.8c-2-3.9-5.5-5.9-10.3-5.9h-8.1c-2.6,0-4.6,0.8-6.3,2.3
			c-1.6,1.6-2.4,3.3-2.4,5.1c0,1.9,0.1,3.3,0.4,4.4c2.6,10.5,4,27.3,4,50.2v135.5c0,6.4,2.8,9.5,8.3,9.5h16.4c5.2,0,7.8-3,7.8-9.1
			v-50.6c0-12.2-0.4-18.9-1.3-27c9.8,16.2,24.6,20.7,44.5,20.7c19.1,0,39.4-7.7,51.2-23.1c11.2-14.5,14.7-32.3,14.7-53.4
			C1179.9,330.5,1173.3,314.4,1163.4,302.4z M1145.9,387.9c-13.8,17.7-34,15.2-35.8,15.1c-2.2-0.2-8.2-1.2-13.5-3.1
			c-7.2-2.6-13.5-6.2-18.4-12.2c-1.7-2.1-3.3-4.4-4.6-6.9c-3.8-6.4-5.7-13.6-5.7-21.5v-6.7c0-5.6,0.9-11,2.8-15.9
			c1.5-4.9,3.7-9.4,6.6-13.4c3.3-4.5,7.6-8.2,12.8-10.9c8.7-4.5,18.3-4.7,24.4-4.5c7.9,0.3,13.7,1.9,19,4.7
			c14.6,7.8,21.9,22.1,21.9,42.7C1155.4,369,1152.3,379.9,1145.9,387.9z"/>
	</g>
	<g>
		<path fill="#F05A23" d="M416.9,282.5l-53.2,30.7l-56.6-98c-2.4-0.1-4.8-0.2-7.2-0.2c-50,0-93.6,27.1-116.9,67.5l53.2,30.7
			l-56.6,98C202,455,247.5,485,300,485v-61.4h113.2C427,402.5,435,377.2,435,350C435,325.4,428.4,302.4,416.9,282.5z"/>
		<circle fill="none" cx="300" cy="350" r="135"/>
		<path fill="#F7AC91" d="M300,423.6v-61.4c47.4,0,89.1,24.4,113.2,61.4H300z"/>
		<path fill="#F7AC91" d="M363.8,313.2l-53.1,30.7c-23.7-41-23.4-89.3-3.4-128.7L363.8,313.2z"/>
		<path fill="#F7AC91" d="M236.2,313.2l53.1,30.7c-23.7,41-65.7,64.9-109.7,67.3L236.2,313.2z"/>
		<circle fill="#F7AC91" cx="300" cy="350" r="18"/>
	</g>
</g>
</svg>
