<svg width="184" height="54" viewBox="0 0 184 54" fill="none" xmlns="http://www.w3.org/2000/svg">
<path d="M70.8252 49.4454C71.0067 49.4454 71.1429 49.5361 71.279 49.6269C71.4151 49.763 71.4605 49.8992 71.4605 50.0807V52.7127C71.4605 52.8942 71.4151 53.0757 71.279 53.1664C71.1429 53.3026 71.0067 53.348 70.8252 53.348H59.299C59.1175 53.348 58.936 53.3026 58.8452 53.1664C58.7091 53.0303 58.6637 52.8942 58.6637 52.7127V36.6032C58.6637 36.4217 58.7091 36.2855 58.8452 36.1494C58.9814 36.0132 59.1175 35.9679 59.299 35.9679H62.5663C62.7478 35.9679 62.9293 36.0132 63.0201 36.1494C63.1562 36.2855 63.2016 36.4217 63.2016 36.6032V49.4H70.8252V49.4454Z" fill="white"/>
<path d="M75.8622 53.4387C75.6807 53.4387 75.4992 53.3933 75.4084 53.2572C75.2723 53.1211 75.2269 52.9849 75.2269 52.8034V36.6939C75.2269 36.5124 75.2723 36.3763 75.4084 36.2401C75.5446 36.104 75.6807 36.0586 75.8622 36.0586H79.1295C79.311 36.0586 79.4925 36.104 79.5833 36.2401C79.7194 36.3763 79.7648 36.5124 79.7648 36.6939V52.8034C79.7648 52.9849 79.7194 53.1664 79.5833 53.2572C79.4472 53.3933 79.311 53.4387 79.1295 53.4387H75.8622Z" fill="white"/>
<path d="M96.1465 53.4387C95.8742 53.4387 95.6473 53.3479 95.4658 53.2118C95.2843 53.0756 95.1935 52.9395 95.1482 52.8488L89.4304 44.3175V52.758C89.4304 52.9395 89.385 53.121 89.2489 53.2118C89.1128 53.3479 88.9766 53.3933 88.7951 53.3933H85.4825C85.301 53.3933 85.1194 53.3479 85.0287 53.2118C84.8925 53.0756 84.8472 52.9395 84.8472 52.758V36.6485C84.8472 36.467 84.8925 36.3309 85.0287 36.1947C85.1648 36.0586 85.301 36.0132 85.4825 36.0132H88.0691C88.3413 36.0132 88.5682 36.104 88.7497 36.2401C88.9313 36.3762 89.022 36.5124 89.0674 36.6031L94.7851 45.1344V36.6939C94.7851 36.5124 94.8305 36.3762 94.9666 36.2401C95.1028 36.104 95.2389 36.0586 95.4204 36.0586H98.6877C98.8692 36.0586 99.0507 36.104 99.1415 36.2401C99.2776 36.3762 99.323 36.5124 99.323 36.6939V52.8034C99.323 52.9849 99.2776 53.1664 99.1415 53.2572C99.0054 53.3933 98.8692 53.4387 98.6877 53.4387H96.1465V53.4387Z" fill="white"/>
<path d="M119.199 52.6219C119.244 52.6672 119.29 52.758 119.29 52.8941C119.29 53.0303 119.244 53.1664 119.108 53.2572C119.018 53.3479 118.881 53.4387 118.7 53.4387H114.752C114.525 53.4387 114.344 53.3933 114.162 53.3025C114.026 53.2118 113.844 53.0756 113.708 52.8941L108.989 46.9495V52.8034C108.989 52.9849 108.943 53.1664 108.807 53.2572C108.671 53.3933 108.535 53.4387 108.354 53.4387H105.086C104.905 53.4387 104.723 53.3933 104.632 53.2572C104.496 53.121 104.451 52.9849 104.451 52.8034V36.6939C104.451 36.5124 104.496 36.3762 104.632 36.2401C104.769 36.104 104.905 36.0586 105.086 36.0586H108.354C108.535 36.0586 108.717 36.104 108.807 36.2401C108.943 36.3762 108.989 36.5124 108.989 36.6939V41.9578L113.391 36.5578C113.481 36.467 113.572 36.3309 113.708 36.1947C113.844 36.0586 114.071 36.0132 114.389 36.0132H118.291C118.428 36.0132 118.564 36.0586 118.7 36.1947C118.791 36.2855 118.881 36.4216 118.881 36.5578C118.881 36.6939 118.836 36.7847 118.791 36.83L112.619 44.3629L119.199 52.6219Z" fill="white"/>
<path d="M128.32 35.7409C129.364 35.7409 130.362 35.877 131.27 36.1947C132.177 36.5123 132.949 36.8754 133.584 37.3745C134.219 37.8737 134.719 38.3729 135.127 38.9628C135.49 39.5527 135.672 40.0973 135.717 40.6418C135.717 40.778 135.672 40.9141 135.535 41.0049C135.445 41.0956 135.309 41.1864 135.172 41.1864H131.905C131.678 41.1864 131.497 41.141 131.361 41.0956C131.224 41.0502 131.088 40.9141 130.907 40.778C130.861 40.7326 130.771 40.6418 130.68 40.5511C130.589 40.4149 130.408 40.3242 130.226 40.188C130.045 40.0519 129.772 39.9611 129.455 39.8704C129.137 39.7796 128.774 39.7342 128.366 39.7342C128.048 39.7342 127.73 39.7342 127.458 39.7796C127.186 39.825 126.913 39.8704 126.687 39.9611C126.46 40.0519 126.278 40.188 126.142 40.3695C126.006 40.5511 125.915 40.7326 125.915 41.0049C125.915 41.2771 126.006 41.4586 126.142 41.6402C126.278 41.8217 126.55 41.9578 126.959 42.0939C127.322 42.2301 127.821 42.3662 128.456 42.5024C129.092 42.6385 129.818 42.7746 130.771 42.9561C131.678 43.1377 132.495 43.3646 133.176 43.6368C133.856 43.9091 134.446 44.2721 134.9 44.6805C135.354 45.0889 135.717 45.5881 135.944 46.178C136.171 46.768 136.261 47.4486 136.261 48.2201C136.261 49.0823 136.08 49.8083 135.672 50.489C135.309 51.1697 134.764 51.7143 134.083 52.2134C133.403 52.6672 132.586 53.0302 131.633 53.3025C130.68 53.5748 129.682 53.6655 128.547 53.6655C127.413 53.6655 126.369 53.5294 125.461 53.2118C124.508 52.8941 123.737 52.5311 123.056 52.0319C122.376 51.5327 121.876 50.9882 121.468 50.3983C121.105 49.763 120.878 49.173 120.878 48.5377C120.878 48.4016 120.923 48.2655 121.06 48.1747C121.15 48.084 121.286 47.9932 121.423 47.9932H124.69C124.917 47.9932 125.098 48.0386 125.234 48.0839C125.371 48.1293 125.507 48.2201 125.643 48.3562C125.688 48.4016 125.824 48.5377 125.96 48.6739C126.097 48.81 126.278 48.9915 126.505 49.1277C126.732 49.2638 127.004 49.4453 127.367 49.5361C127.685 49.6722 128.139 49.7176 128.638 49.7176C129.5 49.7176 130.271 49.6268 130.861 49.4453C131.451 49.2638 131.769 48.9008 131.769 48.4016C131.769 48.1293 131.678 47.9478 131.451 47.7663C131.224 47.5848 130.907 47.4486 130.498 47.3125C130.045 47.1764 129.5 47.0402 128.819 46.9041C128.139 46.768 127.367 46.5864 126.46 46.4049C124.735 46.0419 123.51 45.4066 122.693 44.5898C121.922 43.7276 121.513 42.5931 121.513 41.141C121.513 40.4149 121.695 39.7342 122.013 39.0989C122.33 38.4636 122.829 37.8737 123.419 37.3745C124.055 36.8754 124.781 36.467 125.643 36.1947C126.278 35.877 127.276 35.7409 128.32 35.7409Z" fill="white"/>
<path d="M69.9631 25.4397C69.6908 25.4397 69.4639 25.3489 69.2824 25.2128C69.1009 25.0766 69.0101 24.9405 68.9647 24.8497L63.247 16.3185V24.759C63.247 24.9405 63.2016 25.122 63.0655 25.2128C62.9293 25.3035 62.7932 25.3943 62.6117 25.3943H59.3444C59.1629 25.3943 58.9814 25.3489 58.8906 25.2128C58.7545 25.0766 58.7091 24.9405 58.7091 24.759V8.64951C58.7091 8.46799 58.7545 8.33186 58.8906 8.19572C59.0268 8.05959 59.1629 8.01421 59.3444 8.01421H61.931C62.2033 8.01421 62.4302 8.10496 62.6117 8.2411C62.7932 8.37724 62.884 8.51337 62.9293 8.60413L68.6471 17.1353V8.64951C68.6471 8.46799 68.6924 8.33186 68.8286 8.19572C68.9647 8.05959 69.1009 8.01421 69.2824 8.01421H72.5496C72.7312 8.01421 72.9127 8.05959 73.0034 8.19572C73.1396 8.33186 73.1849 8.46799 73.1849 8.64951V24.759C73.1849 24.9405 73.1396 25.122 73.0034 25.2128C72.8673 25.3035 72.7312 25.3943 72.5496 25.3943H69.9631V25.4397Z" fill="white"/>
<path d="M87.4793 7.96913C87.7969 7.96913 88.0692 8.05989 88.2507 8.2414C88.4322 8.42292 88.5684 8.60443 88.6137 8.78595L94.0592 24.487C94.1046 24.6685 94.15 24.7593 94.15 24.85C94.15 24.9862 94.1046 25.1223 93.9684 25.2131C93.8777 25.3038 93.7415 25.3946 93.6054 25.3946H90.4743C90.1566 25.3946 89.8843 25.3038 89.7482 25.1677C89.6121 25.0316 89.5213 24.8954 89.4759 24.7593L88.7953 22.6719H82.1699L81.4893 24.7593C81.4439 24.8954 81.3531 25.0316 81.217 25.1677C81.0809 25.3038 80.854 25.3946 80.4909 25.3946H77.3144C77.1783 25.3946 77.0421 25.3492 76.906 25.2131C76.8152 25.1223 76.7245 24.9862 76.7245 24.85C76.7245 24.7593 76.7699 24.6232 76.8152 24.487L82.2607 8.78595C82.3061 8.60443 82.4422 8.42292 82.6237 8.2414C82.8052 8.05989 83.0321 7.96913 83.3952 7.96913H87.4793ZM83.4406 18.86H87.4793L85.4372 12.87L83.4406 18.86Z" fill="white"/>
<path d="M108.717 7.96913C108.898 7.96913 109.08 8.01451 109.17 8.15065C109.307 8.28678 109.352 8.42292 109.352 8.60444V11.2364C109.352 11.4179 109.307 11.5994 109.17 11.6902C109.034 11.8263 108.898 11.8717 108.717 11.8717H104.315V24.6685C104.315 24.8501 104.27 25.0316 104.133 25.1223C103.997 25.2585 103.861 25.3038 103.68 25.3038H100.412C100.231 25.3038 100.049 25.2585 99.9586 25.1223C99.8224 24.9862 99.777 24.8501 99.777 24.6685V11.9625H95.3753C95.1938 11.9625 95.0123 11.9171 94.9215 11.781C94.7854 11.6448 94.74 11.5087 94.74 11.3272V8.64981C94.74 8.4683 94.7854 8.33216 94.9215 8.19603C95.0576 8.05989 95.1938 8.01451 95.3753 8.01451H108.717V7.96913Z" fill="white"/>
<path d="M127.504 7.96913C127.685 7.96913 127.867 8.01451 127.957 8.15065C128.093 8.28678 128.139 8.42292 128.139 8.60444V18.5424C128.139 19.6769 127.957 20.7206 127.594 21.5828C127.231 22.445 126.687 23.2164 126.051 23.8063C125.371 24.3963 124.554 24.8501 123.646 25.1677C122.739 25.4854 121.695 25.6215 120.561 25.6215C119.426 25.6215 118.382 25.4854 117.475 25.1677C116.522 24.8501 115.75 24.3963 115.07 23.8063C114.389 23.2164 113.89 22.4904 113.527 21.5828C113.164 20.7206 112.982 19.6769 112.982 18.5424V8.64981C112.982 8.4683 113.028 8.33216 113.164 8.19603C113.3 8.05989 113.436 8.01451 113.618 8.01451H116.885C117.066 8.01451 117.248 8.05989 117.339 8.19603C117.475 8.33216 117.52 8.4683 117.52 8.64981V18.497C117.52 19.4954 117.747 20.2668 118.246 20.8567C118.745 21.4013 119.471 21.7189 120.47 21.7189C121.468 21.7189 122.194 21.4466 122.693 20.8567C123.193 20.3122 123.419 19.4954 123.419 18.497V8.64981C123.419 8.4683 123.465 8.33216 123.601 8.19603C123.737 8.05989 123.873 8.01451 124.055 8.01451H127.504V7.96913Z" fill="white"/>
<path d="M140.436 7.96913C141.526 7.96913 142.524 8.10527 143.386 8.33216C144.248 8.55906 144.974 8.92209 145.61 9.37587C146.2 9.82966 146.699 10.4196 147.016 11.1456C147.334 11.8717 147.516 12.7339 147.516 13.6869C147.516 14.9575 147.243 15.9558 146.744 16.7726C146.245 17.5894 145.519 18.2247 144.566 18.6785L147.652 24.6232C147.697 24.7139 147.742 24.8047 147.742 24.8954C147.742 25.0316 147.697 25.1677 147.561 25.2585C147.47 25.3492 147.334 25.44 147.153 25.44H143.749C143.431 25.44 143.159 25.3492 143.023 25.2131C142.887 25.0769 142.751 24.8954 142.705 24.7593L139.937 19.4046H137.623V24.7593C137.623 24.9408 137.578 25.1223 137.441 25.2131C137.305 25.3492 137.169 25.3946 136.988 25.3946H133.72C133.539 25.3946 133.357 25.3492 133.267 25.2131C133.13 25.0769 133.085 24.9408 133.085 24.7593V8.64981C133.085 8.4683 133.13 8.33216 133.267 8.19603C133.403 8.05989 133.539 8.01451 133.72 8.01451H140.436V7.96913ZM137.623 15.5474H140.436C141.117 15.5474 141.707 15.4113 142.161 15.139C142.615 14.8667 142.842 14.3675 142.842 13.6869C142.842 13.0062 142.615 12.507 142.161 12.2347C141.707 11.9625 141.117 11.8263 140.436 11.8263H137.623V15.5474Z" fill="white"/>
<path d="M160.948 7.96913C161.265 7.96913 161.538 8.05989 161.719 8.2414C161.901 8.42292 162.037 8.60443 162.082 8.78595L167.528 24.487C167.573 24.6685 167.618 24.7593 167.618 24.85C167.618 24.9862 167.573 25.1223 167.437 25.2131C167.346 25.3038 167.21 25.3946 167.074 25.3946H163.943C163.625 25.3946 163.353 25.3038 163.217 25.1677C163.08 25.0316 162.99 24.8954 162.944 24.7593L162.264 22.6719H155.638L154.958 24.7593C154.912 24.8954 154.822 25.0316 154.685 25.1677C154.549 25.3038 154.322 25.3946 153.959 25.3946H150.828C150.692 25.3946 150.556 25.3492 150.42 25.2131C150.329 25.1223 150.238 24.9862 150.238 24.85C150.238 24.7593 150.284 24.6232 150.329 24.487L155.774 8.78595C155.82 8.60443 155.956 8.42292 156.138 8.2414C156.319 8.05989 156.546 7.96913 156.909 7.96913H160.948ZM156.909 18.86H160.948L158.906 12.87L156.909 18.86Z" fill="white"/>
<path d="M183.365 21.4467C183.546 21.4467 183.682 21.5374 183.819 21.6282C183.955 21.7643 184 21.9004 184 22.082V24.7139C184 24.8954 183.955 25.077 183.819 25.1677C183.682 25.3039 183.546 25.3492 183.365 25.3492H171.839C171.657 25.3492 171.476 25.3039 171.385 25.1677C171.249 25.0316 171.203 24.8954 171.203 24.7139V8.64983C171.203 8.46832 171.249 8.33218 171.385 8.19604C171.521 8.05991 171.657 8.01453 171.839 8.01453H175.106C175.287 8.01453 175.469 8.05991 175.56 8.19604C175.696 8.33218 175.741 8.46832 175.741 8.64983V21.4467H183.365Z" fill="white"/>
<path d="M26.717 19.2685L29.5305 16.455C31.754 14.2314 35.4297 14.0953 37.5172 16.1827C39.6046 18.2701 39.5138 21.9458 37.2449 24.1694L29.6666 31.793C27.4431 34.0166 23.9489 34.1527 21.8615 32.0653C20.3186 30.8401 18.095 31.1123 16.8698 32.6552C15.8715 33.9258 15.8261 35.6502 16.779 36.9662L16.8244 37.0116L16.8698 37.057C16.9152 37.1023 16.9606 37.1023 16.9606 37.1477C21.5438 41.5041 29.0767 41.2318 33.8415 36.4216L41.9643 28.2988C46.7744 23.4887 47.0013 15.8197 42.4634 11.2818C37.9256 6.7439 30.2565 6.9708 25.401 11.8263L18.2312 18.9962C19.774 18.5424 21.3623 18.4063 22.9959 18.497C24.2665 18.5878 25.5372 18.86 26.717 19.2685Z" fill="white"/>
<path d="M27.3524 42.7294C26.8532 42.8655 26.3086 42.9562 25.8095 43.047C25.3557 43.0924 24.8111 43.1378 24.312 43.1831C23.8128 43.2285 23.2683 43.2739 22.7691 43.2285C21.4985 43.1378 20.2279 42.8655 19.0026 42.4571L16.1892 45.2706C13.9656 47.4941 10.2899 47.6303 8.20249 45.5428C6.11506 43.4554 6.2512 39.7797 8.47476 37.5562L16.0984 29.9325C18.322 27.709 21.8161 27.5274 23.9036 29.6603C25.1742 30.704 27.0347 30.7493 28.3507 29.751C29.8936 28.5712 30.2112 26.3022 28.986 24.7593L28.9406 24.6686L28.8952 24.6232C28.8499 24.5778 28.8045 24.5778 28.8045 24.5324C24.2212 20.1761 16.6883 20.4937 11.9236 25.2585L9.33696 27.8451L8.384 28.7981L3.80074 33.3813C-1.05479 38.2368 -1.28169 45.9059 3.2562 50.4438C7.79408 54.9816 15.4631 54.7547 20.3186 49.8992L26.6263 43.5915C26.6717 43.5915 27.5792 42.5932 27.5792 42.5932C27.5792 42.5932 27.4431 42.684 27.3524 42.7294Z" fill="white"/>
<path d="M8.29332 24.3962C8.52022 24.8954 8.83787 25.44 8.88324 26.2114C8.74711 27.0736 8.56559 27.9358 8.42946 28.798L9.38241 27.845C9.56393 27.0282 9.79082 26.3022 10.0631 25.803C11.7421 23.8063 14.6917 20.6752 14.1018 16.3188C13.7388 11.3271 7.88491 6.88002 6.29665 0.300095C4.34536 4.15729 1.53188 6.88002 0.6243 11.6448C-0.600928 20.3575 7.93029 22.9895 8.29332 24.3962ZM6.11514 5.47328C7.7034 10.6011 12.332 16.2734 10.9253 20.539C10.7438 21.4466 10.1992 22.3088 9.51855 23.3979C10.0631 21.8097 10.0631 20.7206 9.88158 19.4953C8.83787 18.0886 5.43446 17.544 4.20923 16.3188C5.52521 17.2718 9.01938 17.3172 10.4261 18.4062C10.2446 16.0919 9.33703 15.0936 8.61097 13.8684L3.75544 10.6465C4.79915 11.191 7.88491 12.2347 7.88491 12.2347L6.11514 5.47328Z" fill="#3FFF00"/>
<path d="M27.5338 42.6386C27.5792 42.6386 27.6246 42.5932 27.6246 42.5932C27.6246 42.5932 26.717 43.5915 26.6716 43.5915H26.717C26.7624 43.5915 26.8078 43.5915 26.8531 43.5915C27.4431 43.6823 27.7607 43.9545 28.0784 44.1814C29.0313 44.5899 30.075 50.8975 36.3827 50.8975C39.8769 50.716 42.1004 48.9916 45.0047 47.9479C40.5122 46.1781 37.9256 41.5948 34.386 40.8234C31.5272 40.0066 29.1221 41.5948 27.5338 42.6386ZM37.7894 48.4017L35.6566 45.2252C34.8852 44.5899 34.023 43.9092 32.3894 43.5461C33.0247 44.6806 32.7524 46.4958 33.2969 47.4941C32.5255 46.4958 32.6616 44.4537 31.7541 43.5915C30.8919 43.3646 30.1204 43.2285 28.9406 43.4554C29.7574 43.047 30.4381 42.7747 31.1188 42.7293C34.2953 42.1394 37.8802 45.9512 41.3744 47.6302L36.2012 45.2705C37.1995 46.2235 37.018 47.358 37.7894 48.4017Z" fill="#3FFF00"/>
</svg>
