<svg width="60" height="24" viewBox="0 0 60 24" fill="none" xmlns="http://www.w3.org/2000/svg">
<path d="M37.6666 4.14661C37.6784 4.16973 37.702 4.20442 37.7374 4.20442C39.0945 4.11192 40.4044 4.37784 41.6789 4.80563C41.7733 4.84032 41.8205 4.87501 41.7969 4.99062C41.5727 5.96182 41.3603 6.94458 41.1479 7.92734C41.1243 8.06608 41.0771 8.07765 40.9591 8.01984C39.8498 7.5458 38.6932 7.31456 37.4777 7.37237C37.0529 7.3955 36.6399 7.46487 36.2504 7.6383C36.0262 7.74235 35.8256 7.88109 35.6604 8.07765C35.3417 8.47075 35.3417 8.93323 35.684 9.31477C35.9908 9.66162 36.392 9.8813 36.7815 10.101C37.5249 10.5056 38.292 10.8525 38.9883 11.3265C39.4485 11.6271 39.8616 11.9624 40.2156 12.3787C40.8882 13.1649 41.1243 14.0783 41.0535 15.0957C40.9473 16.4484 40.369 17.57 39.2951 18.4024C38.3156 19.1655 37.1945 19.6048 35.9672 19.7898C35.6486 19.8361 35.3181 19.8708 34.9995 19.9055C34.9641 19.9055 34.9287 19.9055 34.9287 19.9401C34.3622 19.9401 33.8076 19.9401 33.2411 19.9401C32.9697 19.8476 32.6865 19.8708 32.4033 19.8245C31.5064 19.6973 30.6213 19.5355 29.7716 19.2117C29.6182 19.1539 29.5828 19.0961 29.6182 18.9343C29.8424 17.9399 30.0548 16.9572 30.2673 15.9629C30.3027 15.8241 30.3263 15.7894 30.4679 15.8588C31.3648 16.2866 32.3089 16.6103 33.3119 16.7028C34.1616 16.7837 35.0231 16.8184 35.8374 16.4947C36.2858 16.3097 36.6753 16.0553 36.8051 15.5466C36.8995 15.1535 36.8405 14.7951 36.5455 14.4945C36.156 14.0783 35.6604 13.8123 35.1529 13.558C34.5039 13.2342 33.843 12.9336 33.2411 12.5174C32.4151 11.9393 31.6952 11.2687 31.4002 10.286C31.0107 8.99104 31.2822 7.77704 32.061 6.69022C32.8281 5.6034 33.9374 4.97906 35.1883 4.58596C35.9082 4.35472 36.6517 4.25066 37.4069 4.19285C37.4541 4.19285 37.5249 4.22754 37.5603 4.15817C37.6075 4.14661 37.6311 4.14661 37.6666 4.14661Z" fill="white"/>
<path d="M15.9643 14.8182C16.4246 13.6736 16.873 12.5752 17.3215 11.4653C18.2419 9.18758 19.1624 6.89832 20.0829 4.62063C20.1301 4.49345 20.1891 4.4472 20.3307 4.4472C21.6171 4.45877 22.9034 4.45877 24.1897 4.4472C24.3667 4.4472 24.3785 4.48189 24.3077 4.63219C22.1717 9.6038 20.0475 14.5754 17.9233 19.547C17.8643 19.6742 17.8053 19.7089 17.6637 19.7089C16.3656 19.7089 15.0674 19.7089 13.7693 19.7089C13.6277 19.7089 13.5687 19.6858 13.5333 19.5355C13.1675 18.1249 12.7898 16.7259 12.424 15.3154C12.0464 13.8817 11.6687 12.4596 11.2911 11.0259C10.9725 9.83504 10.6538 8.64417 10.347 7.44173C10.1936 6.82895 9.86316 6.37804 9.26131 6.10055C8.1756 5.60339 7.0427 5.2681 5.88619 4.99061C5.83899 4.97905 5.77998 4.96749 5.73278 4.95593C5.42595 4.88656 5.43775 4.88656 5.49676 4.59751C5.52036 4.48189 5.56756 4.4472 5.68557 4.4472C7.90418 4.4472 10.1228 4.4472 12.3414 4.4472C13.3445 4.4472 14.0644 5.04842 14.2532 6.03118C14.8078 8.89853 15.3507 11.7543 15.9053 14.6217C15.9171 14.6679 15.9407 14.7257 15.9643 14.8182Z" fill="white"/>
<path d="M24.8034 19.7089C24.1897 19.7089 23.5642 19.7089 22.9506 19.7089C22.809 19.7089 22.7854 19.6742 22.8208 19.547C23.163 17.9746 23.517 16.4022 23.8593 14.8298C24.3549 12.5752 24.8388 10.3322 25.3344 8.07766C25.5822 6.92147 25.8419 5.76529 26.0897 4.6091C26.1133 4.48192 26.1487 4.43567 26.2903 4.43567C27.5176 4.43567 28.7567 4.44723 29.984 4.43567C30.1493 4.43567 30.1492 4.49348 30.1138 4.6091C29.7716 6.18151 29.4294 7.75393 29.0753 9.32635C28.3791 12.5174 27.6828 15.7085 26.9866 18.8996C26.9394 19.1193 26.8803 19.3389 26.8449 19.5586C26.8213 19.6742 26.7741 19.6974 26.6679 19.6974C26.0425 19.6974 25.417 19.7089 24.8034 19.7089Z" fill="white"/>
<path d="M40.8646 19.6973C41.136 19.0499 41.4075 18.4255 41.6671 17.8127C42.9062 14.9223 44.1453 12.0202 45.3844 9.12977C45.8683 7.98514 46.3639 6.85208 46.8478 5.70745C47.0956 5.10623 47.4968 4.66688 48.1695 4.51658C48.3347 4.48189 48.4999 4.45877 48.6652 4.45877C49.7391 4.45877 50.813 4.45877 51.8987 4.4472C52.0403 4.4472 52.0757 4.49345 52.1111 4.62063C53.1614 9.59224 54.2235 14.5523 55.2856 19.5239C55.321 19.6858 55.2738 19.6973 55.1322 19.6973C54.0229 19.6973 52.9017 19.6973 51.7924 19.6973C51.6508 19.6973 51.5918 19.6511 51.5682 19.5239C51.4384 18.888 51.2968 18.2521 51.167 17.6162C51.1434 17.4659 51.0844 17.4081 50.9192 17.4081C49.326 17.4196 47.7329 17.4196 46.1515 17.4081C46.0099 17.4081 45.9391 17.4428 45.8801 17.5815C45.6441 18.2405 45.3962 18.8996 45.1484 19.5586C45.113 19.6395 45.0894 19.6973 44.9832 19.6973C43.6143 19.6973 42.2572 19.6973 40.8646 19.6973ZM49.208 8.54011C49.1608 8.66729 49.149 8.74823 49.1136 8.8176C48.677 9.95066 48.2875 11.0953 47.8391 12.2168C47.5913 12.8411 47.3906 13.477 47.1546 14.1129C47.1074 14.2517 47.1192 14.2979 47.2844 14.2979C48.2639 14.2864 49.2434 14.2979 50.2111 14.2979C50.4471 14.2979 50.4471 14.2979 50.3881 14.0667C50.0813 12.6215 49.7745 11.1762 49.4676 9.73099C49.3968 9.36101 49.3024 8.97946 49.208 8.54011Z" fill="white"/>
</svg>
