<svg width="66" height="27" viewBox="0 0 66 27" fill="none" xmlns="http://www.w3.org/2000/svg">
<g clip-path="url(#clip0)">
<path d="M33.4147 26.0714C22.874 26.0714 12.3333 26.0714 1.77965 26.0714C1.5457 26.0714 1.48071 26.0196 1.48071 25.7734C1.48071 17.3252 1.48071 8.89005 1.48071 0.441903C1.49371 0.221629 1.5457 0.1698 1.79264 0.1698C22.874 0.1698 43.9684 0.1698 65.0498 0.1698C65.2837 0.1698 65.3487 0.221629 65.3487 0.467817C65.3487 8.91597 65.3487 17.3512 65.3487 25.7993C65.3487 26.0325 65.2967 26.0973 65.0498 26.0973C54.5091 26.0714 43.9684 26.0714 33.4147 26.0714ZM21.0414 8.37176C21.0544 8.37176 21.0804 8.37176 21.1064 8.38472C21.1064 8.4495 21.1064 8.51429 21.1064 8.57908C21.1064 9.83593 21.1064 11.0798 21.1064 12.3367C21.1064 12.544 21.1584 12.6088 21.3794 12.6088C21.7433 12.5958 22.1202 12.5958 22.4971 12.6088C22.6791 12.6088 22.7441 12.5699 22.7441 12.3756C22.7441 10.4838 22.7441 8.60499 22.7441 6.71323C22.7441 6.49295 22.6661 6.46704 22.4841 6.48C22.0032 6.48 21.5223 6.48 21.0414 6.48C20.7555 6.48 20.4046 6.36338 20.2096 6.53183C20.0277 6.68731 20.0017 7.0242 19.8977 7.28335C19.5338 8.28106 19.1828 9.26581 18.8059 10.3154C18.7539 10.1858 18.7149 10.0951 18.6889 10.0044C18.286 8.90301 17.8831 7.8146 17.4932 6.71323C17.4542 6.58366 17.4282 6.46704 17.2203 6.46704C16.4924 6.48 15.7516 6.46704 15.0237 6.46704C14.8808 6.46704 14.8158 6.50591 14.8158 6.6614C14.8158 8.56612 14.8158 10.4838 14.8158 12.3885C14.8158 12.5699 14.8938 12.5958 15.0497 12.5958C15.4137 12.5958 15.7906 12.5829 16.1675 12.5958C16.4014 12.6088 16.4534 12.5181 16.4404 12.2978C16.4404 11.1057 16.4404 9.92663 16.4404 8.73456C16.4404 8.63091 16.4014 8.51429 16.5054 8.37176C16.5444 8.48838 16.5834 8.57908 16.6224 8.68273C17.0643 9.90072 17.5192 11.1057 17.9611 12.3237C18.0261 12.5181 18.1171 12.6217 18.338 12.5958C18.65 12.5699 18.9619 12.5829 19.2608 12.5958C19.4558 12.5958 19.5468 12.544 19.6117 12.3626C19.7677 11.8961 19.9497 11.4297 20.1186 10.9632C20.4046 10.0951 20.7165 9.22694 21.0414 8.37176ZM56.0558 10.0821C56.0428 10.0821 56.0168 10.0951 56.0038 10.0951C55.9518 10.0173 55.8868 9.92663 55.8218 9.83593C55.107 8.77344 54.4051 7.7239 53.7033 6.6614C53.6253 6.54478 53.5603 6.44113 53.3913 6.44113C52.8195 6.45408 52.2606 6.45408 51.6887 6.44113C51.5198 6.44113 51.4808 6.50591 51.4808 6.6614C51.4808 8.55316 51.4808 10.432 51.4808 12.3237C51.4808 12.531 51.5587 12.5699 51.7407 12.5699C52.0916 12.557 52.4426 12.557 52.7935 12.5699C53.0534 12.5829 53.1444 12.5181 53.1314 12.246C53.1184 11.1835 53.1314 10.121 53.1314 9.0585C53.1314 8.9678 53.1054 8.87709 53.1834 8.77344C53.2484 8.87709 53.3134 8.95484 53.3654 9.04554C54.0932 10.134 54.821 11.2353 55.5489 12.3237C55.6269 12.4403 55.6788 12.557 55.8608 12.557C56.4067 12.544 56.9396 12.557 57.4854 12.557C57.6414 12.557 57.6804 12.5051 57.6804 12.3496C57.6804 10.4449 57.6804 8.52725 57.6804 6.62253C57.6804 6.46704 57.6284 6.42817 57.4725 6.42817C57.1345 6.42817 56.7836 6.45408 56.4457 6.42817C56.1337 6.40225 56.0298 6.48 56.0428 6.81689C56.0818 7.93121 56.0558 9.00667 56.0558 10.0821ZM36.3651 12.5829C35.6632 11.8184 35.0134 11.1187 34.3505 10.3931C34.4415 10.3672 34.4935 10.3413 34.5455 10.3154C35.5592 9.96551 36.0921 9.1492 35.9492 8.13853C35.8192 7.17969 35.0784 6.50591 34.0256 6.48C32.8298 6.44113 31.6211 6.46704 30.4254 6.46704C30.2824 6.46704 30.2174 6.50591 30.2174 6.6614C30.2174 8.56612 30.2174 10.4838 30.2174 12.3885C30.2174 12.544 30.2564 12.5958 30.4124 12.5958C30.7893 12.5958 31.1792 12.5829 31.5561 12.5958C31.7901 12.6088 31.8811 12.557 31.8681 12.2978C31.8551 11.7536 31.8681 11.2224 31.8681 10.6782C31.8681 10.6004 31.8161 10.4579 31.959 10.4449C32.193 10.4449 32.4269 10.3801 32.6219 10.6263C33.1158 11.2353 33.6487 11.8184 34.1686 12.4144C34.2335 12.4922 34.2855 12.5958 34.4155 12.5958C35.0524 12.5829 35.6762 12.5829 36.3651 12.5829ZM38.6006 18.2711C38.7565 18.2193 38.8735 18.1804 38.9905 18.1286C39.5494 17.9083 39.9393 17.5196 40.1213 16.9624C40.5502 15.6538 39.7183 14.4358 38.3017 14.371C37.1059 14.3192 35.8972 14.358 34.7014 14.3451C34.5455 14.3451 34.4805 14.3839 34.4805 14.5653C34.4805 16.4571 34.4805 18.3618 34.4805 20.2665C34.4805 20.422 34.5195 20.4868 34.7014 20.4868C35.0914 20.4739 35.4813 20.4739 35.8842 20.4868C36.0921 20.4868 36.1311 20.422 36.1311 20.2277C36.1181 19.6705 36.1311 19.1263 36.1311 18.5691C36.1311 18.4914 36.0791 18.3359 36.2221 18.3359C36.4561 18.3359 36.69 18.2582 36.898 18.4914C37.3918 19.1004 37.9247 19.6835 38.4446 20.2795C38.5096 20.3572 38.5616 20.4739 38.6916 20.4739C39.3284 20.4739 39.9523 20.4739 40.6541 20.4739C39.9133 19.7094 39.2634 18.9967 38.6006 18.2711ZM14.7898 17.39C14.7898 18.323 14.7898 19.2559 14.7898 20.1888C14.7898 20.3572 14.7898 20.4739 15.0107 20.4609C16.5964 20.4609 18.1821 20.4609 19.7677 20.4609C19.9367 20.4609 19.9887 20.4091 19.9887 20.2406C19.9887 19.9426 19.9757 19.6446 19.9887 19.3466C20.0017 19.1004 19.9107 19.0486 19.6767 19.0486C18.8319 19.0615 17.9741 19.0486 17.1293 19.0486C16.4144 19.0486 16.4274 19.0486 16.4274 18.3359C16.4274 18.1156 16.4924 18.0768 16.7004 18.0768C17.6752 18.0768 18.637 18.0768 19.5987 18.0768C19.8067 18.0768 19.9107 18.0379 19.8977 17.8047C19.8847 17.5196 19.8847 17.2345 19.8977 16.9495C19.9107 16.7422 19.8457 16.6774 19.6247 16.6774C18.7799 16.6903 17.9481 16.6774 17.1033 16.6774C16.4144 16.6774 16.4274 16.6774 16.4144 16.0036C16.4144 15.7704 16.4664 15.6926 16.7134 15.6926C17.6882 15.7056 18.6759 15.6926 19.6507 15.7056C19.9237 15.7056 20.0017 15.6278 19.9757 15.3557C19.9627 15.0966 19.9627 14.8245 19.9757 14.5653C19.9887 14.3451 19.9107 14.2932 19.7027 14.2932C18.1561 14.2932 16.5964 14.2932 15.0367 14.2932C14.8028 14.2932 14.7508 14.371 14.7638 14.5913C14.7898 15.5501 14.7898 16.4701 14.7898 17.39ZM23.9658 9.52496C23.9658 10.4579 23.9658 11.3908 23.9658 12.3237C23.9658 12.4663 23.9398 12.5958 24.1607 12.5958C25.7594 12.5958 27.358 12.5958 28.9437 12.5958C29.1257 12.5958 29.1647 12.531 29.1517 12.3756C29.1517 12.0905 29.1387 11.8054 29.1517 11.5204C29.1647 11.2742 29.0997 11.1964 28.8397 11.1964C27.9949 11.2094 27.1371 11.1964 26.2923 11.1964C25.6034 11.1964 25.6034 11.1964 25.6034 10.4968C25.6034 10.2635 25.6684 10.2117 25.8894 10.2117C26.8642 10.2247 27.8259 10.2117 28.7877 10.2247C29.0217 10.2247 29.0867 10.1599 29.0737 9.93959C29.0607 9.65453 29.0607 9.36947 29.0737 9.08441C29.0867 8.86414 28.9957 8.82527 28.8007 8.82527C27.9559 8.82527 27.0981 8.82527 26.2533 8.82527C25.6034 8.82527 25.6294 8.82527 25.6034 8.1774C25.6034 7.9053 25.6814 7.85347 25.9414 7.85347C26.9031 7.86643 27.8519 7.85347 28.8137 7.86643C29.0607 7.86643 29.1776 7.82755 29.1646 7.54249C29.1387 7.27039 29.1517 6.98533 29.1646 6.71323C29.1776 6.51887 29.1257 6.45408 28.9177 6.45408C27.358 6.45408 25.7854 6.45408 24.2387 6.45408C24.0308 6.45408 23.9658 6.51887 23.9788 6.72619C23.9658 7.65911 23.9658 8.59203 23.9658 9.52496ZM41.083 17.403C41.083 18.3359 41.083 19.2688 41.083 20.2018C41.083 20.3443 41.057 20.4739 41.278 20.4739C42.8766 20.4739 44.4753 20.4739 46.0609 20.4739C46.2429 20.4739 46.2689 20.3961 46.2689 20.2406C46.2689 19.9297 46.2559 19.6187 46.2689 19.3207C46.2819 19.1263 46.2169 19.0745 46.022 19.0745C45.1511 19.0874 44.2803 19.0745 43.4095 19.0745C42.7207 19.0745 42.7467 19.0745 42.7207 18.4007C42.7207 18.1286 42.8117 18.0897 43.0456 18.0897C44.0074 18.1027 44.9562 18.0897 45.918 18.0897C46.1129 18.0897 46.2039 18.0509 46.1909 17.8306C46.1779 17.5326 46.1779 17.2345 46.1909 16.9365C46.2039 16.7292 46.1259 16.6903 45.931 16.6903C45.0862 16.6903 44.2543 16.6903 43.4095 16.6903C42.7077 16.6903 42.7207 16.6903 42.7077 15.9906C42.7077 15.7574 42.7857 15.7056 43.0066 15.7056C43.9944 15.7185 44.9822 15.7056 45.97 15.7056C46.1779 15.7056 46.2819 15.6667 46.2689 15.4335C46.2559 15.1484 46.2559 14.8634 46.2689 14.5783C46.2819 14.358 46.2039 14.3192 45.996 14.3192C44.4493 14.3192 42.8896 14.3192 41.33 14.3192C41.122 14.3192 41.057 14.371 41.057 14.5913C41.083 15.5371 41.07 16.4701 41.083 17.403ZM14.4389 12.5829C14.4389 12.531 14.4519 12.5181 14.4389 12.5051C13.5811 10.5615 12.7232 8.59203 11.8524 6.63548C11.7875 6.49295 11.6965 6.46704 11.5535 6.46704C11.0076 6.46704 10.4747 6.48 9.92886 6.46704C9.70791 6.46704 9.61693 6.53183 9.52595 6.72619C8.77212 8.46246 7.99229 10.2117 7.22545 11.948C6.93952 12.5829 6.93952 12.5829 7.64136 12.5829C8.00528 12.5829 8.42119 12.6865 8.70713 12.531C8.99307 12.3756 9.01906 11.9091 9.16203 11.5852C9.16203 11.5722 9.16203 11.5722 9.17503 11.5593C9.21402 11.3908 9.33099 11.339 9.49996 11.339C10.2668 11.3519 11.0336 11.3519 11.8005 11.339C12.0474 11.339 12.1644 11.4167 12.2294 11.65C12.3073 11.9091 12.4373 12.1553 12.5413 12.4144C12.5803 12.531 12.6453 12.5958 12.8012 12.5958C13.3471 12.5829 13.893 12.5829 14.4389 12.5829ZM51.1428 12.5829C51.1428 12.531 51.1428 12.4922 51.1298 12.4663C50.272 10.5227 49.4012 8.56612 48.5564 6.62253C48.5044 6.49295 48.4134 6.45408 48.2835 6.46704C47.7116 6.46704 47.1397 6.46704 46.5548 6.46704C46.4119 6.46704 46.3209 6.50591 46.2559 6.64844C45.4241 8.55316 44.5663 10.4708 43.7345 12.3756C43.6565 12.544 43.6825 12.5958 43.8774 12.5958C44.3323 12.5958 44.7872 12.5829 45.2551 12.5958C45.4241 12.5958 45.5021 12.531 45.5541 12.3756C45.658 12.0905 45.788 11.8314 45.892 11.5463C45.944 11.3908 46.035 11.339 46.2039 11.339C46.9967 11.339 47.8026 11.339 48.5954 11.339C48.7774 11.339 48.8683 11.4038 48.9203 11.5593C49.0243 11.8443 49.1543 12.1294 49.2712 12.4144C49.3102 12.5181 49.3622 12.5829 49.5052 12.5829C50.0381 12.5829 50.597 12.5829 51.1428 12.5829ZM56.6016 14.3451C56.0818 14.3451 55.5619 14.3451 55.042 14.3451C54.6521 14.3451 54.2881 14.4358 53.9372 14.6172C53.2224 14.9929 52.8845 15.7315 53.0144 16.6126C53.1184 17.3382 53.6123 17.8694 54.3791 18.0249C54.6131 18.0638 54.847 18.0768 55.081 18.0897C55.5749 18.1027 56.0558 18.0897 56.5497 18.1027C56.8616 18.1156 57.0565 18.323 57.0305 18.5821C57.0175 18.8672 56.8356 19.0226 56.5627 19.0615C56.4717 19.0745 56.3677 19.0615 56.2767 19.0615C55.3539 19.0615 54.4311 19.0745 53.4953 19.0615C53.2224 19.0615 53.1444 19.1393 53.1704 19.3984C53.1834 19.6576 53.1834 19.9037 53.1704 20.1629C53.1574 20.3961 53.2224 20.4739 53.4693 20.4739C54.3401 20.4609 55.2109 20.4739 56.0818 20.4739C56.4197 20.4739 56.7446 20.4739 57.0695 20.422C58.1223 20.2147 58.7462 19.3855 58.6552 18.297C58.5772 17.3123 57.9144 16.7422 56.8096 16.7163C56.3157 16.7033 55.8088 16.7163 55.3149 16.7163C55.1979 16.7163 55.081 16.7033 54.964 16.6774C54.743 16.6126 54.6261 16.4571 54.6261 16.2368C54.6261 15.9906 54.769 15.8481 55.003 15.7833C55.12 15.7574 55.2629 15.7574 55.3799 15.7574C56.1467 15.7574 56.9136 15.7574 57.6804 15.7574C57.8494 15.7574 57.9533 15.7056 58.0183 15.5371C58.1483 15.2132 58.3043 14.8893 58.4602 14.5783C58.5642 14.3839 58.4862 14.3451 58.3043 14.3451C57.7324 14.3451 57.1605 14.3451 56.6016 14.3451ZM52.5075 14.371C51.2208 14.371 49.9731 14.358 48.7124 14.371C48.3355 14.371 47.9845 14.5265 47.6856 14.7597C47.0357 15.265 46.8538 15.9388 47.0097 16.7163C47.1527 17.4548 47.6466 17.8694 48.3614 18.0249C48.5824 18.0768 48.8293 18.0768 49.0633 18.0897C49.5442 18.1027 50.0251 18.0897 50.506 18.0897C50.8179 18.0897 50.9999 18.2841 51.0129 18.5432C51.0259 18.8283 50.8439 19.0226 50.519 19.0486C50.428 19.0486 50.324 19.0486 50.233 19.0486C49.2972 19.0486 48.3614 19.0486 47.4257 19.0486C47.2307 19.0486 47.1527 19.0874 47.1657 19.2948C47.1787 19.5928 47.1787 19.8908 47.1657 20.1888C47.1527 20.3961 47.2177 20.4609 47.4386 20.4609C48.3874 20.4479 49.3232 20.4609 50.285 20.4609C50.558 20.4609 50.8179 20.4479 51.0779 20.4091C52.1436 20.2147 52.7545 19.3725 52.6635 18.2582C52.5855 17.3123 51.9097 16.7422 50.8179 16.7163C50.324 16.7033 49.8171 16.7163 49.3232 16.7163C49.1933 16.7163 49.0633 16.7163 48.9463 16.6644C48.7384 16.5867 48.6214 16.4182 48.6344 16.198C48.6474 15.9777 48.7644 15.8352 48.9723 15.7833C49.0893 15.7574 49.2193 15.7445 49.3492 15.7445C50.1291 15.7445 50.8959 15.7445 51.6757 15.7445C51.8447 15.7445 51.9487 15.7056 52.0136 15.5371C52.1436 15.1484 52.3256 14.7856 52.5075 14.371ZM27.683 14.3451C27.0201 14.3451 26.4482 14.3451 25.8634 14.3451C25.6814 14.3451 25.5514 14.3969 25.4345 14.5394C25.0316 15.0318 24.6027 15.4983 24.1867 15.9906C24.0568 16.1461 23.9788 16.172 23.8358 15.9906C23.4459 15.5112 23.017 15.0448 22.6141 14.5653C22.4841 14.4099 22.3411 14.3321 22.1332 14.3321C21.6133 14.3451 21.0934 14.3321 20.5735 14.3321C20.4955 14.3321 20.4046 14.2932 20.3526 14.3969C21.1584 15.3039 21.9642 16.2239 22.796 17.1309C22.965 17.3123 22.939 17.4159 22.783 17.5844C22.0032 18.4525 21.2234 19.3336 20.4566 20.2018C20.4046 20.2665 20.3006 20.3184 20.3136 20.4479C20.9375 20.4479 21.5613 20.4479 22.1852 20.4479C22.3281 20.4479 22.3931 20.3572 22.4711 20.2665C22.926 19.7353 23.3939 19.2041 23.8488 18.6728C23.9658 18.5303 24.0308 18.5173 24.1607 18.6728C24.6026 19.2041 25.0705 19.7353 25.5384 20.2665C25.6034 20.3443 25.6554 20.4479 25.7854 20.4479C26.4482 20.4479 27.0981 20.4479 27.761 20.4479C27.761 20.2925 27.657 20.2406 27.592 20.1629C26.8122 19.2818 26.0323 18.3877 25.2525 17.5196C25.1095 17.3641 25.0965 17.2734 25.2525 17.105C25.9674 16.3275 26.6562 15.5371 27.358 14.7597C27.41 14.656 27.514 14.5265 27.683 14.3451ZM27.9819 17.403C27.9819 18.3359 27.9819 19.2688 27.9819 20.2018C27.9819 20.4091 28.0469 20.4739 28.2548 20.4739C28.6188 20.4609 28.9957 20.4609 29.3726 20.4739C29.5936 20.4868 29.6455 20.4091 29.6455 20.2018C29.6325 19.7223 29.6455 19.2429 29.6455 18.7635C29.6455 18.5303 29.6975 18.4525 29.9445 18.4525C30.6073 18.4655 31.2702 18.4784 31.92 18.4266C32.7779 18.3489 33.4147 17.9083 33.7007 17.0531C34.1426 15.6667 33.2718 14.4099 31.8161 14.358C30.6333 14.3192 29.4376 14.358 28.2419 14.3451C28.0209 14.3451 28.0079 14.4487 28.0079 14.6172C27.9819 15.5501 27.9819 16.4701 27.9819 17.403ZM43.0716 6.46704C43.0716 6.48 43.0716 6.48 43.0716 6.46704C42.7337 6.48 42.3828 6.46704 42.0448 6.48C40.7061 6.55774 39.7443 7.33518 39.4454 8.57908C39.3284 9.07145 39.3154 9.56383 39.3674 10.0562C39.4974 11.326 40.2642 12.2201 41.486 12.5051C41.8889 12.5958 42.3048 12.5829 42.7207 12.5958C42.8377 12.5958 42.9156 12.557 42.9676 12.4403C43.1236 12.0775 43.2926 11.7277 43.4745 11.3779C43.5525 11.2353 43.5005 11.1964 43.3575 11.1964C43.0456 11.1964 42.7337 11.1964 42.4347 11.1964C41.9668 11.1835 41.5379 11.028 41.291 10.6134C40.9011 9.97846 40.9011 9.29173 41.2 8.63091C41.473 8.03487 42.0448 7.9053 42.6427 7.89234C43.1366 7.89234 43.6435 7.89234 44.1374 7.89234C44.3063 7.89234 44.3973 7.86643 44.3843 7.67207C44.3713 7.33518 44.3713 7.01125 44.3843 6.68731C44.3843 6.49295 44.3063 6.45408 44.1374 6.46704C43.7735 6.48 43.4225 6.46704 43.0716 6.46704ZM38.4706 9.53792C38.4706 8.61795 38.4576 7.69798 38.4706 6.76506C38.4706 6.50591 38.3926 6.44113 38.1457 6.45408C37.8078 6.46704 37.4568 6.48 37.1189 6.45408C36.846 6.44113 36.807 6.53183 36.807 6.77801C36.807 8.60499 36.82 10.4449 36.807 12.2719C36.807 12.531 36.885 12.5958 37.1319 12.5829C37.4568 12.5699 37.7948 12.5699 38.1197 12.5829C38.3796 12.5958 38.4706 12.531 38.4576 12.2589C38.4576 11.3519 38.4706 10.4449 38.4706 9.53792Z" fill="#026FCF"/>
<path d="M21.0414 8.37177C20.7165 9.22695 20.4046 10.0951 20.0926 10.9503C19.9237 11.4167 19.7417 11.8832 19.5857 12.3497C19.5208 12.5311 19.4298 12.5958 19.2348 12.5829C18.9229 12.5699 18.611 12.5699 18.312 12.5829C18.0911 12.5958 18.0001 12.5051 17.9351 12.3108C17.5062 11.0928 17.0513 9.88777 16.5964 8.66979C16.5704 8.57909 16.5314 8.48839 16.4794 8.35881C16.3884 8.50134 16.4144 8.61796 16.4144 8.72162C16.4144 9.91369 16.4144 11.0928 16.4144 12.2849C16.4144 12.4922 16.3754 12.5958 16.1415 12.5829C15.7776 12.5699 15.4007 12.5699 15.0237 12.5829C14.8808 12.5829 14.7898 12.5699 14.7898 12.3756C14.7898 10.4709 14.7898 8.55317 14.7898 6.64845C14.7898 6.49296 14.8548 6.45409 14.9977 6.45409C15.7256 6.45409 16.4664 6.45409 17.1943 6.45409C17.3892 6.45409 17.4152 6.57071 17.4672 6.70028C17.8571 7.78869 18.26 8.89006 18.6629 9.97847C18.6889 10.0692 18.7279 10.1469 18.7799 10.2894C19.1568 9.23991 19.5208 8.25516 19.8717 7.25744C19.9627 6.9983 19.9887 6.66141 20.1836 6.50592C20.3916 6.33748 20.7295 6.46705 21.0154 6.45409C21.4963 6.45409 21.9772 6.45409 22.4581 6.45409C22.6401 6.45409 22.7181 6.48001 22.7181 6.68732C22.7181 8.57909 22.7181 10.4579 22.7181 12.3497C22.7181 12.5311 22.6531 12.5829 22.4711 12.5829C22.1072 12.5699 21.7303 12.5699 21.3534 12.5829C21.1454 12.5829 21.0804 12.5311 21.0804 12.3108C21.0804 11.0539 21.0804 9.81003 21.0804 8.55317C21.0804 8.48839 21.0804 8.4236 21.0804 8.35881C21.0804 8.38473 21.0674 8.37177 21.0414 8.37177Z" fill="#FCFDFD"/>
<path d="M56.0557 10.0822C56.0557 9.0067 56.0687 7.93125 56.0427 6.84283C56.0427 6.50594 56.1337 6.4282 56.4456 6.45412C56.7835 6.48003 57.1345 6.46707 57.4724 6.45412C57.6154 6.45412 57.6803 6.49299 57.6803 6.64847C57.6803 8.5532 57.6803 10.4709 57.6803 12.3756C57.6803 12.5181 57.6414 12.5829 57.4854 12.5829C56.9395 12.5829 56.4066 12.57 55.8607 12.5829C55.6788 12.5829 55.6268 12.4663 55.5488 12.3497C54.821 11.2613 54.0931 10.1599 53.3653 9.07149C53.3133 8.98079 53.2483 8.90304 53.1833 8.79938C53.1054 8.89008 53.1313 8.99374 53.1313 9.08444C53.1313 10.1469 53.1183 11.2094 53.1313 12.2719C53.1313 12.544 53.0534 12.6218 52.7934 12.5959C52.4425 12.5829 52.0916 12.5829 51.7407 12.5959C51.5587 12.5959 51.4807 12.57 51.4807 12.3497C51.4807 10.4579 51.4807 8.57911 51.4807 6.68735C51.4807 6.53186 51.5197 6.46707 51.6887 6.46707C52.2475 6.46707 52.8194 6.48003 53.3783 6.46707C53.5473 6.46707 53.6122 6.55777 53.6902 6.68735C54.4051 7.74984 55.1069 8.79938 55.8218 9.86188C55.8737 9.95258 55.9387 10.0303 56.0037 10.121C56.0167 10.0951 56.0427 10.0951 56.0557 10.0822Z" fill="#FCFDFD"/>
<path d="M36.3651 12.5828C35.6633 12.5828 35.0524 12.5828 34.4285 12.5828C34.2986 12.5828 34.2466 12.4792 34.1816 12.4014C33.6617 11.8054 33.1288 11.2353 32.6349 10.6133C32.44 10.3671 32.206 10.419 31.9721 10.4319C31.8291 10.4319 31.8811 10.5745 31.8811 10.6652C31.8811 11.2094 31.8681 11.7406 31.8811 12.2848C31.8811 12.531 31.8031 12.5958 31.5692 12.5828C31.1923 12.5699 30.8023 12.5699 30.4254 12.5828C30.2695 12.5828 30.2305 12.531 30.2305 12.3755C30.2305 10.4708 30.2305 8.55312 30.2305 6.6484C30.2305 6.49292 30.2825 6.45405 30.4384 6.45405C31.6342 6.45405 32.8429 6.44109 34.0386 6.467C35.0914 6.49292 35.8322 7.17965 35.9622 8.12553C36.1052 9.1362 35.5723 9.95251 34.5585 10.3024C34.5065 10.3153 34.4415 10.3412 34.3636 10.3801C35.0264 11.1187 35.6633 11.8313 36.3651 12.5828ZM32.8559 9.08437C33.1288 9.08437 33.3888 9.08437 33.6487 9.08437C34.0646 9.07142 34.3246 8.82523 34.3116 8.46242C34.3116 8.11258 34.0646 7.87935 33.6617 7.86639C33.3888 7.85343 33.1028 7.85343 32.8299 7.86639C32.518 7.87935 32.0761 7.72386 31.9201 7.93118C31.7641 8.13849 31.8811 8.56608 31.8551 8.89001C31.8421 9.05846 31.9071 9.11029 32.0761 9.09733C32.349 9.08437 32.6089 9.08437 32.8559 9.08437Z" fill="#FCFDFD"/>
<path d="M38.6006 18.2711C39.2765 18.9967 39.9263 19.7094 40.6152 20.4609C39.9133 20.4609 39.2895 20.4609 38.6526 20.4609C38.5356 20.4609 38.4836 20.3443 38.4057 20.2665C37.8858 19.6705 37.3529 19.0874 36.859 18.4784C36.664 18.2322 36.4301 18.31 36.1831 18.3229C36.0402 18.3229 36.0922 18.4655 36.0922 18.5562C36.0922 19.1133 36.0922 19.6575 36.0922 20.2147C36.0922 20.3961 36.0532 20.4868 35.8452 20.4739C35.4553 20.4609 35.0654 20.4609 34.6625 20.4739C34.4935 20.4739 34.4415 20.422 34.4415 20.2536C34.4415 18.3618 34.4415 16.4571 34.4415 14.5524C34.4415 14.3839 34.5065 14.3321 34.6625 14.3321C35.8582 14.3321 37.067 14.3062 38.2627 14.358C39.6664 14.4098 40.4982 15.6408 40.0823 16.9495C39.9003 17.5196 39.4974 17.8954 38.9515 18.1156C38.8736 18.1675 38.7436 18.2063 38.6006 18.2711ZM37.1059 16.9754C37.3529 16.9754 37.5868 16.9754 37.8338 16.9754C38.2887 16.9624 38.5746 16.7292 38.5616 16.3534C38.5616 15.9906 38.2887 15.7574 37.8468 15.7444C37.3399 15.7315 36.833 15.7444 36.3261 15.7444C36.1701 15.7444 36.0922 15.7704 36.1052 15.9518C36.1182 16.2239 36.1052 16.496 36.1052 16.781C36.1052 16.9236 36.1442 16.9883 36.3001 16.9883C36.5731 16.9624 36.833 16.9754 37.1059 16.9754Z" fill="#FCFDFD"/>
<path d="M14.7898 17.39C14.7898 16.4701 14.7898 15.5501 14.7898 14.6172C14.7898 14.4099 14.8288 14.3192 15.0627 14.3192C16.6094 14.3321 18.1691 14.3192 19.7287 14.3192C19.9367 14.3192 20.0147 14.358 20.0017 14.5913C19.9887 14.8504 19.9887 15.1225 20.0017 15.3817C20.0147 15.6408 19.9497 15.7315 19.6767 15.7315C18.7019 15.7185 17.7142 15.7315 16.7394 15.7185C16.4924 15.7185 16.4404 15.7833 16.4404 16.0295C16.4534 16.7033 16.4404 16.7033 17.1293 16.7033C17.9741 16.7033 18.8059 16.7033 19.6507 16.7033C19.8587 16.7033 19.9237 16.7551 19.9237 16.9754C19.9107 17.2605 19.9107 17.5455 19.9237 17.8306C19.9367 18.0638 19.8457 18.1156 19.6247 18.1027C18.65 18.0897 17.6882 18.1027 16.7264 18.1027C16.5314 18.1027 16.4534 18.1416 16.4534 18.3618C16.4534 19.0745 16.4534 19.0745 17.1553 19.0745C18.0001 19.0745 18.8579 19.0745 19.7027 19.0745C19.9367 19.0745 20.0277 19.1133 20.0147 19.3725C19.9887 19.6705 20.0017 19.9685 20.0147 20.2665C20.0147 20.435 19.9627 20.4868 19.7937 20.4868C18.208 20.4868 16.6224 20.4868 15.0367 20.4868C14.8028 20.4868 14.8158 20.3702 14.8158 20.2147C14.7898 19.2559 14.7898 18.3359 14.7898 17.39Z" fill="#FCFDFD"/>
<path d="M23.9657 9.52498C23.9657 8.59205 23.9657 7.65913 23.9657 6.7262C23.9657 6.51889 24.0177 6.4541 24.2257 6.4541C25.7853 6.4541 27.358 6.4541 28.9046 6.4541C29.1126 6.4541 29.1646 6.51889 29.1516 6.71325C29.1386 6.98535 29.1256 7.27041 29.1516 7.54251C29.1776 7.82757 29.0606 7.86645 28.8007 7.86645C27.8389 7.85349 26.8901 7.86645 25.9283 7.85349C25.6684 7.85349 25.5774 7.89236 25.5904 8.17742C25.6034 8.82528 25.5904 8.82528 26.2402 8.82528C27.085 8.82528 27.9429 8.82528 28.7877 8.82528C28.9826 8.82528 29.0736 8.86416 29.0606 9.08443C29.0476 9.36949 29.0476 9.65455 29.0606 9.93961C29.0736 10.1599 29.0086 10.2376 28.7747 10.2247C27.7999 10.2117 26.8381 10.2247 25.8763 10.2117C25.6554 10.2117 25.5904 10.2635 25.5904 10.4968C25.5904 11.1965 25.5904 11.1965 26.2792 11.1965C27.124 11.1965 27.9818 11.2094 28.8267 11.1965C29.0866 11.1965 29.1516 11.2742 29.1386 11.5204C29.1256 11.8055 29.1256 12.0905 29.1386 12.3756C29.1386 12.5311 29.1126 12.5959 28.9306 12.5959C27.332 12.5959 25.7333 12.5959 24.1477 12.5959C23.9267 12.5959 23.9527 12.4663 23.9527 12.3238C23.9657 11.3908 23.9657 10.4579 23.9657 9.52498Z" fill="#FCFDFD"/>
<path d="M41.0701 17.403C41.0701 16.47 41.0701 15.5371 41.0701 14.6042C41.0701 14.3969 41.1221 14.3321 41.343 14.3321C42.8897 14.3321 44.4493 14.3321 46.009 14.3321C46.2169 14.3321 46.2949 14.371 46.2819 14.5912C46.2689 14.8763 46.2689 15.1614 46.2819 15.4464C46.2949 15.6796 46.2039 15.7315 45.983 15.7185C44.9952 15.7056 44.0074 15.7185 43.0196 15.7185C42.7987 15.7185 42.7207 15.7574 42.7207 16.0036C42.7207 16.7033 42.7207 16.7033 43.4226 16.7033C44.2674 16.7033 45.0992 16.7033 45.944 16.7033C46.126 16.7033 46.2169 16.7421 46.2039 16.9495C46.1909 17.2475 46.1909 17.5455 46.2039 17.8435C46.2169 18.0638 46.139 18.1156 45.931 18.1027C44.9692 18.1027 44.0204 18.1027 43.0586 18.1027C42.8247 18.1027 42.7207 18.1415 42.7337 18.4136C42.7467 19.0874 42.7337 19.0874 43.4226 19.0874C44.2934 19.0874 45.1642 19.0874 46.035 19.0874C46.2299 19.0874 46.2949 19.1392 46.2819 19.3336C46.2689 19.6446 46.2819 19.9556 46.2819 20.2536C46.2819 20.3961 46.2689 20.4868 46.074 20.4868C44.4753 20.4868 42.8767 20.4868 41.291 20.4868C41.0701 20.4868 41.0961 20.3572 41.0961 20.2147C41.0831 19.2688 41.0831 18.3359 41.0701 17.403Z" fill="#FCFDFD"/>
<path d="M14.4389 12.5829C13.893 12.5829 13.3601 12.5829 12.8143 12.5829C12.6713 12.5829 12.6063 12.5181 12.5543 12.4015C12.4503 12.1423 12.3204 11.8961 12.2424 11.637C12.1644 11.4167 12.0474 11.326 11.8135 11.326C11.0467 11.339 10.2798 11.339 9.51299 11.326C9.33103 11.326 9.22705 11.3649 9.18806 11.5463C9.18806 11.5592 9.18806 11.5592 9.17506 11.5722C9.03209 11.8961 8.9931 12.3626 8.72016 12.5181C8.44722 12.6736 8.01831 12.5569 7.65439 12.5699C6.95255 12.5699 6.95255 12.5699 7.23848 11.935C7.99232 10.2117 8.77215 8.46244 9.53898 6.72616C9.62996 6.5318 9.72094 6.45406 9.94189 6.46702C10.4878 6.47997 11.0207 6.46702 11.5665 6.46702C11.7095 6.46702 11.8005 6.49293 11.8655 6.63546C12.7233 8.59201 13.5941 10.5486 14.4519 12.5051C14.4519 12.5181 14.4519 12.531 14.4389 12.5829ZM10.6827 7.9571C10.3968 8.63088 10.1498 9.22692 9.9029 9.83591C9.86391 9.92661 9.85091 10.0044 9.98088 10.0044C10.4878 10.0044 10.9947 10.0044 11.5405 10.0044C11.2546 9.31762 10.9947 8.66975 10.6827 7.9571Z" fill="#FCFDFD"/>
<path d="M51.1429 12.5829C50.584 12.5829 50.0381 12.5829 49.4792 12.5829C49.3493 12.5829 49.2973 12.5181 49.2453 12.4144C49.1283 12.1294 48.9983 11.8443 48.8944 11.5593C48.8294 11.3908 48.7514 11.339 48.5694 11.339C47.7766 11.3519 46.9708 11.339 46.178 11.339C46.009 11.339 45.931 11.3908 45.866 11.5463C45.762 11.8314 45.6321 12.0905 45.5281 12.3756C45.4761 12.5181 45.4111 12.5958 45.2292 12.5958C44.7743 12.5829 44.3194 12.5829 43.8515 12.5958C43.6565 12.5958 43.6435 12.544 43.7085 12.3756C44.5533 10.4708 45.3981 8.55316 46.2299 6.64844C46.2949 6.50591 46.3729 6.46704 46.5289 6.46704C47.1008 6.46704 47.6726 6.46704 48.2575 6.46704C48.3875 6.46704 48.4655 6.49296 48.5304 6.62253C49.3883 8.56612 50.2591 10.5227 51.1039 12.4663C51.1429 12.4922 51.1429 12.5311 51.1429 12.5829ZM46.5549 9.96551C47.1397 9.96551 47.6726 9.96551 48.2445 9.96551C47.9586 9.29173 47.6856 8.65682 47.3997 7.95713C47.0878 8.66978 46.8148 9.31764 46.5549 9.96551Z" fill="#FCFDFD"/>
<path d="M56.6016 14.3451C57.1605 14.3451 57.7324 14.3451 58.2912 14.3451C58.4732 14.3451 58.5512 14.371 58.4472 14.5783C58.2912 14.8893 58.1353 15.2132 58.0053 15.5372C57.9403 15.7056 57.8493 15.7574 57.6674 15.7574C56.9005 15.7574 56.1337 15.7574 55.3669 15.7574C55.2369 15.7574 55.1069 15.7574 54.99 15.7834C54.756 15.8352 54.626 15.9907 54.613 16.2369C54.613 16.4701 54.73 16.6126 54.951 16.6774C55.0549 16.7033 55.1849 16.7163 55.3019 16.7163C55.7958 16.7163 56.3027 16.7163 56.7966 16.7163C57.9013 16.7422 58.5642 17.3123 58.6422 18.2971C58.7331 19.3855 58.1093 20.2147 57.0565 20.4221C56.7316 20.4868 56.3936 20.4739 56.0687 20.4739C55.1979 20.4739 54.3271 20.4609 53.4563 20.4739C53.2093 20.4739 53.1444 20.4091 53.1574 20.1629C53.1704 19.9038 53.1704 19.6576 53.1574 19.3984C53.1444 19.1393 53.2093 19.0486 53.4823 19.0615C54.4051 19.0745 55.3279 19.0615 56.2637 19.0615C56.3547 19.0615 56.4586 19.0615 56.5496 19.0615C56.8226 19.0227 57.0045 18.8672 57.0175 18.5821C57.0305 18.323 56.8356 18.1157 56.5366 18.1027C56.0427 18.0897 55.5618 18.1027 55.0679 18.0897C54.834 18.0897 54.6 18.0768 54.3661 18.025C53.5993 17.8695 53.1054 17.3382 53.0014 16.6126C52.8844 15.7315 53.2223 14.993 53.9242 14.6172C54.2751 14.4358 54.639 14.3451 55.0289 14.3451C55.5618 14.3451 56.0817 14.3451 56.6016 14.3451Z" fill="#FCFDFD"/>
<path d="M52.5076 14.371C52.3256 14.7727 52.1436 15.1484 51.9877 15.5242C51.9227 15.6926 51.8187 15.7315 51.6498 15.7315C50.8699 15.7315 50.1031 15.7315 49.3233 15.7315C49.1933 15.7315 49.0633 15.7315 48.9463 15.7704C48.7514 15.8222 48.6214 15.9647 48.6084 16.185C48.5954 16.4182 48.6994 16.5608 48.9203 16.6515C49.0373 16.7033 49.1673 16.7033 49.2973 16.7033C49.7912 16.7033 50.298 16.7033 50.7919 16.7033C51.8707 16.7292 52.5596 17.2993 52.6375 18.2452C52.7285 19.3595 52.1176 20.1888 51.0519 20.3961C50.7919 20.448 50.519 20.448 50.2591 20.448C49.3103 20.448 48.3745 20.448 47.4127 20.448C47.2047 20.448 47.1267 20.3961 47.1397 20.1759C47.1527 19.8778 47.1527 19.5798 47.1397 19.2818C47.1267 19.0745 47.2047 19.0356 47.3997 19.0356C48.3355 19.0356 49.2713 19.0356 50.2071 19.0356C50.298 19.0356 50.402 19.0356 50.493 19.0356C50.8179 19.0097 50.9999 18.8153 50.9869 18.5303C50.9869 18.2582 50.7919 18.0768 50.48 18.0768C49.9991 18.0638 49.5182 18.0768 49.0373 18.0768C48.8034 18.0768 48.5694 18.0638 48.3355 18.012C47.6206 17.8565 47.1397 17.4419 46.9838 16.7033C46.8278 15.9259 47.0098 15.2521 47.6596 14.7468C47.9586 14.5135 48.3225 14.371 48.6864 14.358C49.9601 14.358 51.2208 14.371 52.5076 14.371Z" fill="#FCFDFD"/>
<path d="M27.683 14.345C27.527 14.5264 27.4101 14.656 27.3061 14.7726C26.6042 15.5501 25.9154 16.3405 25.2005 17.1179C25.0576 17.2863 25.0576 17.377 25.2005 17.5325C25.9934 18.4136 26.7602 19.2947 27.54 20.1758C27.605 20.2536 27.709 20.3054 27.709 20.4609C27.0461 20.4609 26.3963 20.4609 25.7334 20.4609C25.6035 20.4609 25.5515 20.3572 25.4865 20.2795C25.0316 19.7482 24.5637 19.217 24.1088 18.6857C23.9918 18.5432 23.9268 18.5432 23.7969 18.6857C23.355 19.217 22.8871 19.7482 22.4192 20.2795C22.3412 20.3702 22.2762 20.4609 22.1332 20.4609C21.5094 20.4609 20.8855 20.4609 20.2616 20.4609C20.2486 20.3183 20.3396 20.2795 20.4046 20.2147C21.1714 19.3336 21.9513 18.4654 22.7311 17.5973C22.8871 17.4289 22.913 17.3252 22.7441 17.1438C21.9253 16.2498 21.1194 15.3298 20.3006 14.4098C20.3526 14.2932 20.4566 14.345 20.5216 14.345C21.0415 14.345 21.5613 14.345 22.0812 14.345C22.3022 14.345 22.4322 14.4098 22.5621 14.5783C22.965 15.0577 23.3809 15.5241 23.7839 16.0036C23.9268 16.172 24.0048 16.1591 24.1348 16.0036C24.5377 15.5112 24.9666 15.0447 25.3825 14.5524C25.4995 14.4098 25.6295 14.358 25.8114 14.358C26.4483 14.358 27.0201 14.345 27.683 14.345Z" fill="#FCFDFD"/>
<path d="M27.9819 17.403C27.9819 16.47 27.9819 15.5371 27.9819 14.6042C27.9819 14.4358 27.9819 14.3321 28.2159 14.3321C29.4116 14.345 30.5944 14.3191 31.7901 14.345C33.2458 14.3969 34.1166 15.6667 33.6747 17.0402C33.4017 17.8953 32.7649 18.3359 31.8941 18.4136C31.2312 18.4655 30.5814 18.4525 29.9185 18.4395C29.6716 18.4395 29.6066 18.5043 29.6196 18.7505C29.6326 19.2299 29.6196 19.7094 29.6196 20.1888C29.6196 20.3831 29.5806 20.4738 29.3466 20.4609C28.9827 20.4479 28.6058 20.4479 28.2289 20.4609C28.0209 20.4609 27.9559 20.4091 27.9559 20.1888C27.9949 19.2688 27.9819 18.3488 27.9819 17.403ZM30.6463 17.079C30.9063 17.079 31.1532 17.079 31.4002 17.079C31.8551 17.0661 32.128 16.794 32.115 16.4053C32.115 16.0036 31.8421 15.7444 31.3872 15.7315C30.8673 15.7185 30.3474 15.7315 29.8275 15.7315C29.6976 15.7315 29.6066 15.7444 29.6196 15.9258C29.6326 16.2498 29.6196 16.5867 29.6196 16.9106C29.6196 17.0402 29.6716 17.092 29.8015 17.092C30.0875 17.079 30.3734 17.079 30.6463 17.079Z" fill="#FCFDFD"/>
<path d="M43.0716 6.46704C43.4225 6.46704 43.7734 6.46704 44.1243 6.46704C44.2933 6.46704 44.3713 6.49296 44.3713 6.68731C44.3583 7.0242 44.3583 7.34814 44.3713 7.67207C44.3713 7.86643 44.2933 7.9053 44.1243 7.89234C43.6304 7.89234 43.1236 7.89234 42.6297 7.89234C42.0188 7.89234 41.4599 8.03487 41.187 8.63091C40.875 9.29173 40.888 9.97847 41.278 10.6134C41.5379 11.015 41.9668 11.1705 42.4217 11.1965C42.7336 11.2094 43.0456 11.1965 43.3445 11.1965C43.4875 11.1965 43.5395 11.2224 43.4615 11.3779C43.2925 11.7277 43.1236 12.0905 42.9546 12.4403C42.9026 12.557 42.8376 12.5958 42.7076 12.5958C42.2917 12.5958 41.8758 12.5958 41.4729 12.5051C40.2642 12.2201 39.4844 11.339 39.3544 10.0562C39.3024 9.56383 39.3154 9.0585 39.4324 8.57908C39.7443 7.34814 40.7061 6.5707 42.0318 6.48C42.3697 6.46704 42.7206 6.48 43.0586 6.48C43.0716 6.48 43.0716 6.46704 43.0716 6.46704Z" fill="#FCFDFD"/>
<path d="M38.4706 9.53793C38.4706 10.4449 38.4576 11.352 38.4706 12.2719C38.4706 12.544 38.3926 12.6218 38.1327 12.5959C37.8077 12.5699 37.4698 12.5829 37.1449 12.5959C36.8979 12.6088 36.8199 12.557 36.8199 12.2849C36.8329 10.4579 36.8329 8.61796 36.8199 6.79099C36.8199 6.55776 36.8589 6.44114 37.1319 6.46705C37.4698 6.49297 37.8207 6.48001 38.1587 6.46705C38.4056 6.4541 38.4836 6.50593 38.4836 6.77803C38.4576 7.698 38.4706 8.61796 38.4706 9.53793Z" fill="#FCFDFD"/>
<path d="M32.8558 9.08438C32.5959 9.08438 32.3489 9.08438 32.089 9.08438C31.933 9.08438 31.855 9.04551 31.868 8.87706C31.881 8.55313 31.764 8.1385 31.933 7.91823C32.089 7.71091 32.5309 7.8664 32.8428 7.85344C33.1157 7.84048 33.4017 7.84048 33.6746 7.85344C34.0775 7.8664 34.3245 8.11259 34.3245 8.44947C34.3245 8.81228 34.0775 9.04551 33.6616 9.07142C33.3887 9.09734 33.1287 9.08438 32.8558 9.08438Z" fill="#026FCF"/>
<path d="M37.1059 16.9754C36.833 16.9754 36.573 16.9754 36.3131 16.9754C36.1571 16.9754 36.1051 16.9236 36.1181 16.7681C36.1181 16.496 36.1311 16.2239 36.1181 15.9388C36.1181 15.7574 36.1831 15.7315 36.3391 15.7315C36.846 15.7315 37.3529 15.7315 37.8597 15.7315C38.3016 15.7445 38.5746 15.9907 38.5746 16.3405C38.5746 16.7033 38.3016 16.9495 37.8467 16.9624C37.5868 16.9754 37.3399 16.9754 37.1059 16.9754Z" fill="#026FCF"/>
<path d="M10.6827 7.95715C10.9816 8.6698 11.2545 9.31767 11.5405 9.99145C10.9946 9.99145 10.4877 9.99145 9.98082 9.99145C9.85085 9.99145 9.85085 9.92666 9.90284 9.823C10.1628 9.22697 10.4097 8.63093 10.6827 7.95715Z" fill="#026FCF"/>
<path d="M46.5548 9.96553C46.8278 9.30471 47.1007 8.6698 47.3866 7.95715C47.6856 8.65685 47.9585 9.29175 48.2314 9.96553C47.6726 9.96553 47.1267 9.96553 46.5548 9.96553Z" fill="#026FCF"/>
<path d="M30.6463 17.079C30.3733 17.079 30.1004 17.079 29.8275 17.079C29.6975 17.079 29.6455 17.0401 29.6455 16.8976C29.6455 16.5737 29.6455 16.2368 29.6455 15.9129C29.6455 15.7444 29.7235 15.7185 29.8535 15.7185C30.3733 15.7185 30.8932 15.7185 31.4131 15.7185C31.868 15.7315 32.141 15.9906 32.141 16.3923C32.141 16.781 31.868 17.0531 31.4261 17.0661C31.1532 17.092 30.8932 17.079 30.6463 17.079Z" fill="#026FCF"/>
</g>
<defs>
<clipPath id="clip0">
<rect width="64.9858" height="25.9146" fill="white" transform="translate(0.973755 0.1698)"/>
</clipPath>
</defs>
</svg>
