<svg width="56" height="24" viewBox="0 0 56 24" fill="none" xmlns="http://www.w3.org/2000/svg">
<path d="M33.0813 1.50131C34.0525 1.49014 34.8898 1.82504 35.5931 2.47251C35.794 2.66228 36.0396 2.86322 35.9503 3.16462C35.861 3.45487 35.5596 3.46603 35.314 3.49952C32.9139 3.86791 30.6478 4.64933 28.5044 5.78798C26.8969 6.64754 25.4904 7.76386 24.1843 9.03647C22.3312 10.8226 20.6121 12.7203 19.0827 14.7855C17.8324 16.4935 16.7161 18.2796 15.9235 20.2555C15.8119 20.5346 15.6779 20.5122 15.4881 20.3671C15.2091 20.155 15.1756 19.8536 15.2202 19.5299C15.3542 18.6033 15.7002 17.7326 16.0798 16.873C17.5757 13.5464 19.7637 10.6998 22.2642 8.08759C23.5145 6.7815 24.8094 5.53122 26.2718 4.45956C27.7565 3.37672 29.297 2.40553 31.0496 1.8362C31.7194 1.64643 32.3892 1.51247 33.0813 1.50131Z" fill="#E84E20"/>
<path d="M2.55005 16.2479C2.75099 15.1651 2.95192 14.1157 3.15286 13.0664C3.52125 11.1575 3.88963 9.23739 4.24685 7.32848C4.28034 7.13871 4.33616 7.07173 4.52593 7.03824C5.55295 6.87079 6.57996 6.78149 7.61814 6.97126C9.3596 7.29499 10.1745 8.63458 9.64984 10.3314C9.19215 11.7938 8.08699 12.4636 6.65811 12.7203C6.1446 12.8096 5.61993 12.8319 5.09526 12.7538C4.84967 12.7203 4.79385 12.7873 4.76036 12.9994C4.58175 13.9929 4.38081 14.9976 4.21337 15.9911C4.17988 16.2032 4.10173 16.259 3.9008 16.2479C3.45427 16.2367 3.0189 16.2479 2.55005 16.2479ZM8.15397 9.5388C8.16514 8.85784 7.86373 8.43364 7.23859 8.25503C6.7809 8.12107 6.31205 8.1434 5.84319 8.21038C5.69807 8.2327 5.65342 8.29968 5.63109 8.42248C5.45248 9.34902 5.27387 10.2756 5.09526 11.2021C5.06177 11.3584 5.08409 11.4142 5.26271 11.4365C5.64225 11.47 6.0218 11.4924 6.40135 11.4254C7.42837 11.2803 8.14281 10.51 8.15397 9.5388Z" fill="white"/>
<path d="M13.5234 14.7855C13.2332 15.1316 12.9876 15.4888 12.675 15.779C11.9047 16.4712 10.7884 16.6051 10.007 16.0804C9.38187 15.6562 9.13628 15.0311 9.10279 14.3055C8.99116 11.8719 10.6656 9.52764 13.4453 9.38252C14.1709 9.34903 14.8742 9.41601 15.5774 9.58346C15.7672 9.62811 15.8565 9.67276 15.8119 9.91835C15.5551 11.3026 15.2314 12.6868 15.0304 14.0822C14.9411 14.7185 14.9076 15.366 14.8965 16.0135C14.8965 16.1809 14.8518 16.2479 14.6732 16.2367C14.316 16.2256 13.9476 16.2256 13.5904 16.2367C13.4229 16.2479 13.3895 16.1809 13.4006 16.0246C13.4564 15.6227 13.4899 15.1985 13.5234 14.7855ZM13.4788 10.6105C13.3225 10.6328 13.155 10.6328 12.9876 10.6663C11.4359 11.0012 10.4982 13.0106 10.8219 14.3613C10.9782 14.9976 11.5029 15.2544 12.128 15.0088C12.6304 14.8078 12.9318 14.3948 13.1885 13.9483C13.6685 13.0999 13.7578 12.1398 13.9588 11.2133C14.0704 10.6328 14.0592 10.6328 13.4788 10.6105Z" fill="white"/>
<path d="M23.3805 13.1334C23.4587 11.8719 24.1061 10.51 25.6578 9.7286C26.4951 9.3044 27.3993 9.22626 28.2923 9.53883C29.4645 9.96303 29.9891 10.9007 30.0003 12.0952C30.0226 13.6357 29.4421 14.9307 28.136 15.8125C27.3435 16.3484 26.4392 16.527 25.4904 16.3484C24.1508 16.0916 23.347 15.0088 23.3805 13.1334ZM25.0327 13.4906C25.0215 13.8702 25.0662 14.2274 25.2671 14.5623C25.7471 15.366 26.8634 15.366 27.5109 14.5623C28.1249 13.8032 28.3816 12.9213 28.3258 11.9501C28.3035 11.5147 28.1695 11.1128 27.79 10.8561C27.243 10.4654 26.4727 10.5658 25.9592 11.1128C25.3452 11.7826 25.0773 12.5975 25.0327 13.4906Z" fill="white"/>
<path d="M32.8135 10.6663C33.327 10.0412 33.9187 9.58347 34.6889 9.41602C35.6713 9.20392 36.4862 9.56114 36.8211 10.3761C37.0109 10.8337 36.9997 11.3361 36.9216 11.8049C36.676 13.2227 36.4081 14.6292 36.1401 16.0358C36.1178 16.1698 36.0843 16.2591 35.9169 16.2479C35.4592 16.2367 34.9903 16.2367 34.4992 16.2367C34.6554 15.4107 34.8117 14.6181 34.9568 13.8143C35.0796 13.1445 35.2471 12.4859 35.2917 11.8049C35.3141 11.4031 35.3029 10.99 34.901 10.7779C34.4992 10.5658 34.1084 10.6775 33.7512 10.9342C33.1372 11.3696 32.8023 11.9724 32.6126 12.6757C32.3335 13.7473 32.1772 14.8413 31.9763 15.9353C31.9316 16.1921 31.8423 16.2702 31.5856 16.2591C31.2283 16.2367 30.8599 16.2479 30.5027 16.2479C30.3353 16.2591 30.3018 16.2144 30.3353 16.047C30.6478 14.4283 30.9493 12.7985 31.2507 11.1798C31.34 10.6998 31.4069 10.2309 31.4739 9.75092C31.4963 9.57231 31.5521 9.483 31.7642 9.49417C32.0879 9.51649 32.4228 9.50533 32.7465 9.49417C32.914 9.483 32.9586 9.53882 32.9363 9.70627C32.8805 10.0412 32.847 10.3537 32.8135 10.6663Z" fill="white"/>
<path d="M48.855 14.685C48.8997 15.0534 48.9443 15.3995 49.0002 15.7344C49.0225 15.8572 48.9555 15.9018 48.8662 15.9353C47.8057 16.3707 46.7117 16.5493 45.5954 16.2367C44.6353 15.9688 44.0883 15.2767 43.9432 14.3278C43.6865 12.5752 44.2446 11.0905 45.6847 10.0188C46.6336 9.30436 47.7275 9.11458 48.8439 9.62809C50.0495 10.1751 50.2169 11.9389 49.1564 12.7203C48.576 13.1557 47.895 13.3008 47.2029 13.4012C46.6894 13.4682 46.1759 13.4906 45.6624 13.4682C45.4726 13.4571 45.4391 13.5464 45.4391 13.7027C45.4503 14.5399 46.0196 15.0981 46.8903 15.1315C47.5713 15.1539 48.2187 15.0087 48.855 14.685ZM46.2652 12.2738C46.7229 12.2403 47.1359 12.2179 47.5266 12.1063C47.6941 12.0617 47.8503 11.9947 47.9955 11.8831C48.2745 11.6821 48.375 11.3919 48.308 11.0793C48.2411 10.8002 47.9731 10.5881 47.6159 10.577C46.8233 10.5435 46.2763 10.9342 45.8968 11.5928C45.7852 11.7937 45.5731 12.0505 45.6847 12.2291C45.774 12.3854 46.0977 12.2626 46.2652 12.2738Z" fill="white"/>
<path d="M42.6036 14.7185C42.6482 15.0534 42.6929 15.366 42.7376 15.6674C42.7487 15.7679 42.771 15.8683 42.6483 15.9242C41.4761 16.4042 40.2816 16.6163 39.0537 16.1363C38.2834 15.8349 37.8704 15.2097 37.6918 14.4283C37.3011 12.6868 38.1941 10.6886 39.7347 9.80673C40.4826 9.38253 41.2752 9.25974 42.1124 9.46067C43.0166 9.67277 43.5301 10.2867 43.5971 11.191C43.6418 11.9836 43.1618 12.7092 42.3803 13.0441C41.4649 13.4236 40.5161 13.4794 39.5449 13.4906C39.143 13.4906 39.143 13.4906 39.21 13.8813C39.3216 14.6627 39.8128 15.0981 40.5942 15.1427C41.1635 15.1762 41.7217 15.0646 42.2464 14.8637C42.358 14.7967 42.4808 14.7632 42.6036 14.7185ZM39.9244 12.285C40.4044 12.2515 40.9514 12.2403 41.4761 12.0394C41.9338 11.8608 42.1571 11.4812 42.0566 11.0793C41.9673 10.7444 41.5989 10.5323 41.1412 10.577C40.371 10.6551 39.8798 11.1128 39.5449 11.7715C39.3104 12.2626 39.3216 12.2961 39.9244 12.285Z" fill="white"/>
<path d="M52.3379 10.923C52.5389 10.6439 52.684 10.4095 52.8515 10.1974C53.3091 9.65042 53.8785 9.32669 54.6152 9.37134C54.7715 9.3825 54.8273 9.40483 54.7827 9.58344C54.6822 9.97415 54.6152 10.3649 54.5483 10.7667C54.5259 10.9119 54.4701 10.9565 54.3027 10.9565C53.6106 10.923 53.1082 11.2579 52.7287 11.8049C52.2933 12.4189 52.1258 13.1445 51.9919 13.8701C51.8579 14.5846 51.724 15.299 51.6012 16.0134C51.5677 16.1921 51.5007 16.2702 51.2998 16.259C50.9202 16.2367 50.5407 16.2367 50.1611 16.259C49.949 16.2702 49.9379 16.1921 49.9714 16.0134C50.2504 14.5622 50.5183 13.111 50.7751 11.6598C50.8867 11.0235 50.9649 10.3872 51.0319 9.73973C51.0542 9.57228 51.11 9.51646 51.2774 9.52763C51.6012 9.53879 51.9137 9.54995 52.2375 9.52763C52.4384 9.51646 52.4719 9.5946 52.4496 9.77322C52.4049 10.1304 52.3826 10.4877 52.3379 10.923Z" fill="white"/>
<path d="M19.1386 7.81967C19.1386 8.71273 18.9823 9.5388 18.7144 10.3314C18.6362 10.577 18.5469 10.8784 18.2455 10.8672C17.933 10.8449 17.8548 10.5212 17.799 10.2644C17.6315 9.60578 17.4976 8.94715 17.3636 8.28852C17.0064 6.56939 16.6492 4.86142 16.4371 3.11996C16.4148 2.986 16.3589 2.80739 16.4817 2.71809C16.6269 2.60646 16.7943 2.70692 16.9394 2.78507C17.2966 2.99717 17.5422 3.33206 17.7878 3.6558C18.6921 4.90607 19.1497 6.31264 19.1386 7.81967Z" fill="#E84E20"/>
</svg>
