<svg width="48" height="30" viewBox="0 0 48 30" fill="none" xmlns="http://www.w3.org/2000/svg">
<path d="M15.9663 8.01336C16.6068 8.01336 17.1558 8.02849 17.7201 8.01336C18.1776 7.99824 18.1623 8.34609 18.2386 8.61832C18.5588 9.88873 18.8486 11.144 19.2603 12.4296C19.5806 11.1894 19.9465 9.94923 20.221 8.70906C20.343 8.1646 20.587 7.96799 21.1513 8.01336C21.6698 8.05873 22.173 7.92262 22.3255 8.69394C22.5695 9.91898 22.9508 11.1138 23.393 12.3388C23.698 11.144 24.0183 9.96435 24.2775 8.75444C24.3995 8.17973 24.6435 7.98312 25.2383 7.99824C26.5803 8.04361 26.5803 8.01336 26.2143 9.2989C25.6653 11.2045 25.101 13.1253 24.5825 15.046C24.4605 15.4997 24.247 15.6358 23.7895 15.6358C22.4628 15.6358 22.4628 15.6509 22.0815 14.3503C21.8223 13.458 21.563 12.5657 21.258 11.4919C20.8768 12.7774 20.5413 13.8814 20.2515 15.0006C20.1295 15.4695 19.9465 15.6963 19.428 15.6358C19.123 15.6056 18.8181 15.6207 18.5131 15.6358C18.2538 15.6509 18.0861 15.5753 18.0098 15.3031C17.3541 12.8833 16.6678 10.4937 15.9663 8.01336Z" fill="#4170DF"/>
<path d="M37.1942 15.5753C34.922 15.7266 34.922 15.7266 33.8698 13.9419C33.6715 13.5941 33.458 13.2614 33.092 12.9286C33.092 13.6092 33.0615 14.2898 33.1073 14.9704C33.1225 15.4392 33.0005 15.6207 32.482 15.6207C31.1553 15.6207 31.1553 15.6358 31.1553 14.3049C31.1553 12.4144 31.1705 10.5391 31.14 8.64857C31.14 8.16461 31.2773 7.98312 31.7805 7.99824C32.7718 8.04361 33.763 7.98312 34.739 8.05874C35.898 8.14948 36.63 8.86031 36.813 9.93411C36.996 11.0684 36.5995 11.8851 35.532 12.3993C35.1965 12.5657 35.1965 12.6564 35.3795 12.9286C35.9895 13.7756 36.5538 14.6376 37.1942 15.5753ZM33.092 10.5239C33.092 11.628 33.092 11.628 33.6105 11.6129C34.3883 11.5977 34.7848 11.265 34.8 10.6449C34.8153 9.96435 34.3883 9.60138 33.6105 9.58625C32.7565 9.58625 33.2293 10.2215 33.092 10.5239Z" fill="#406FDF"/>
<path d="M14.1973 21.761C14.7463 20.1881 15.3106 18.7665 15.7376 17.2994C15.9511 16.5735 16.3781 16.5735 16.9728 16.5432C17.5981 16.5281 17.9183 16.6794 18.1166 17.3297C18.5741 18.8118 19.1231 20.2789 19.6568 21.8064C18.9553 21.7761 18.1776 22.1845 17.9946 21.1107C17.9641 20.8838 17.7353 20.8989 17.5676 20.8989C17.1558 20.8989 16.7593 20.9141 16.3476 20.8989C16.0578 20.8838 15.8443 20.9594 15.7986 21.277C15.7376 21.761 15.4478 21.8215 15.0056 21.8366C13.4958 21.9122 11.9861 22.0484 11.5743 19.9612C11.3303 20.4906 11.4066 20.9292 11.4218 21.3526C11.4523 21.882 11.1168 21.8517 10.7813 21.8215C10.4611 21.7912 10.0341 21.9879 10.0493 21.3678C10.0646 19.9008 10.0646 18.4489 10.0493 16.9818C10.0493 16.6491 10.2018 16.5432 10.5068 16.5432C11.2388 16.5735 11.9861 16.5584 12.7181 16.634C13.4043 16.6945 13.8313 17.1331 13.9686 17.7834C14.1211 18.464 14.0143 19.1294 13.3281 19.4924C12.9011 19.7193 12.9316 19.8856 13.1756 20.2032C13.4958 20.6872 13.8008 21.1712 14.1973 21.761ZM16.9271 17.5414C16.7593 18.0556 16.6526 18.4035 16.5458 18.7665C16.1798 19.9915 16.1951 20.0217 17.6133 19.7798C17.3998 19.0841 17.1863 18.4035 16.9271 17.5414ZM11.3761 18.4035C11.4523 18.6606 11.2083 19.1143 11.8031 19.0689C12.2301 19.0387 12.5503 18.8723 12.5656 18.4035C12.5656 17.9044 12.2606 17.7078 11.7726 17.6927C11.1931 17.6775 11.4676 18.1313 11.3761 18.4035Z" fill="#4573DF"/>
<path d="M38.0331 11.7943C38.0331 10.7357 38.0483 9.67698 38.0331 8.6183C38.0178 8.17971 38.1246 7.9831 38.6126 7.99822C39.7715 8.02847 40.9458 8.04359 42.12 7.99822C42.913 7.96797 42.6995 8.48219 42.73 8.90566C42.7605 9.3745 42.7453 9.76772 42.0743 9.6921C41.6473 9.64673 41.205 9.72235 40.778 9.67698C40.229 9.61648 40.046 9.79797 40.0308 10.3727C40.0308 10.9625 40.29 11.0381 40.7628 11.0079C41.1135 10.9776 41.4795 11.0381 41.8303 10.9928C42.4555 10.9171 42.5623 11.2045 42.5928 11.7641C42.6233 12.4749 42.364 12.7018 41.693 12.611C41.4185 12.5808 41.1288 12.6413 40.8543 12.5959C40.1375 12.4749 39.985 12.8228 40.046 13.4428C40.0765 13.8209 40.2138 13.9117 40.5493 13.8966C41.1135 13.8814 41.6625 13.9117 42.2268 13.8966C42.5928 13.8814 42.6995 14.0175 42.7148 14.3805C42.791 15.6056 42.8063 15.6056 41.6015 15.6056C40.6865 15.6056 39.7715 15.5602 38.8566 15.6207C38.2161 15.6509 37.9568 15.5148 38.0026 14.804C38.0941 13.8209 38.0331 12.8076 38.0331 11.7943Z" fill="#406FDF"/>
<path d="M43.1875 21.7005C41.449 22.4113 41.1898 20.9292 40.4273 20.0822C40.4273 20.5208 40.412 20.9594 40.4273 21.398C40.4578 21.9576 40.0613 21.8366 39.7563 21.8366C39.4513 21.8366 39.0548 21.9727 39.07 21.4131C39.0853 19.9461 39.0853 18.4942 39.07 17.0272C39.07 16.7096 39.1768 16.5584 39.5123 16.5735C40.229 16.6037 40.9305 16.5886 41.6473 16.6491C42.364 16.7096 42.8215 17.1179 42.974 17.7985C43.1265 18.5093 43.0198 19.205 42.2878 19.5378C41.8303 19.7495 41.9828 19.9159 42.181 20.1881C42.5013 20.6872 42.8368 21.1863 43.1875 21.7005ZM40.412 18.3732C40.4883 18.6152 40.2138 19.0689 40.7933 19.0538C41.2355 19.0387 41.6015 18.8874 41.5863 18.3581C41.5863 17.8893 41.2965 17.7078 40.8543 17.6775C40.3205 17.6473 40.4273 18.0405 40.412 18.3732Z" fill="#4371DF"/>
<path d="M29.4625 11.8246C29.4625 12.8832 29.4473 13.9419 29.4625 14.9855C29.4625 15.4089 29.3863 15.6207 28.883 15.6207C27.3428 15.6509 27.3428 15.666 27.3428 14.1385C27.3428 12.3085 27.358 10.4634 27.3275 8.63342C27.3275 8.13433 27.48 7.99822 27.968 7.99822C29.432 7.99822 29.432 7.96797 29.432 9.40474C29.4625 10.2214 29.4625 11.023 29.4625 11.8246Z" fill="#3F6FDE"/>
<path d="M34.861 19.1597C34.861 18.4791 34.8763 17.7985 34.861 17.118C34.8458 16.755 34.922 16.5433 35.349 16.5584C36.1115 16.5886 36.874 16.5886 37.6365 16.5584C38.155 16.5433 38.094 16.876 38.1245 17.2087C38.1398 17.5868 38.0178 17.7683 37.606 17.738C37.301 17.7078 36.996 17.738 36.691 17.738C36.3555 17.7229 36.264 17.8893 36.264 18.1918C36.264 18.5094 36.3555 18.6606 36.691 18.6455C36.9198 18.6304 37.1485 18.6606 37.3773 18.6455C37.789 18.6152 38.0483 18.6757 38.033 19.2051C38.0178 19.6739 37.8653 19.8554 37.4078 19.81C37.1638 19.7798 36.9045 19.81 36.6453 19.81C36.3403 19.81 36.264 19.9613 36.264 20.2335C36.264 20.5057 36.325 20.6721 36.6453 20.6721C36.9045 20.6721 37.1485 20.7023 37.4078 20.6721C37.8958 20.6267 38.1398 20.7326 38.1398 21.3073C38.1398 21.9274 37.789 21.8518 37.4078 21.8518C36.7215 21.8518 36.0353 21.8366 35.349 21.8518C34.983 21.8669 34.861 21.7156 34.8763 21.3678C34.8763 20.6267 34.861 19.8856 34.861 19.1597Z" fill="#4573DF"/>
<path d="M28.2273 16.4525C28.5628 16.4676 28.883 16.4979 29.188 16.634C29.493 16.7701 29.8285 16.8457 29.5845 17.3145C29.4015 17.6775 29.31 18.0556 28.8068 17.6624C28.6848 17.5717 28.4713 17.5565 28.3035 17.5565C28.029 17.5414 27.785 17.6321 27.724 17.9346C27.6783 18.2069 27.8765 18.343 28.1053 18.4186C28.3493 18.5093 28.5933 18.5698 28.8373 18.6454C29.493 18.8421 29.9657 19.2202 30.0115 19.9612C30.0572 20.7326 29.798 21.3375 29.0965 21.7307C28.334 22.1542 27.1293 22.0181 26.4278 21.5039C25.8635 21.0804 26.4125 20.8082 26.5345 20.5057C26.687 20.1276 26.9005 20.3091 27.0988 20.4906C27.1903 20.5813 27.297 20.6569 27.4038 20.7023C27.846 20.8989 28.3493 21.0502 28.578 20.5057C28.822 19.931 28.2883 19.7949 27.8765 19.6739C27.1598 19.447 26.443 19.2504 26.3363 18.343C26.2295 17.2389 27.053 16.4374 28.2273 16.4525Z" fill="#4472DF"/>
<path d="M30.8045 19.2202C30.8045 18.5396 30.8197 17.859 30.8045 17.1785C30.7892 16.7399 30.896 16.5281 31.3992 16.5433C32.116 16.5735 32.8175 16.5735 33.5342 16.5433C34.0375 16.513 34.1137 16.7399 34.1137 17.1785C34.1137 17.6171 33.9612 17.7683 33.5342 17.7381C33.2597 17.7078 32.97 17.7532 32.6955 17.7381C32.36 17.7229 32.2532 17.8893 32.2532 18.1918C32.2532 18.5094 32.3447 18.6606 32.6802 18.6455C32.8785 18.6304 33.092 18.6606 33.2902 18.6455C33.7172 18.6152 33.9917 18.6455 33.9917 19.2202C33.9917 19.81 33.6867 19.7949 33.275 19.7949C32.1312 19.7949 32.2532 19.6437 32.238 20.8687C32.238 21.3829 32.4057 21.9425 31.4907 21.8669C30.896 21.8215 30.7587 21.6552 30.7892 21.1107C30.835 20.4755 30.8045 19.8554 30.8045 19.2202Z" fill="#4B78E0"/>
<path d="M8.15837 19.9159C8.15837 20.2637 8.15837 20.6267 8.15837 20.9746C8.15837 21.7912 7.70087 22.0937 6.92312 21.8366C6.60287 21.7308 6.69437 21.4888 6.69437 21.277C6.67912 20.3394 6.66387 19.4168 6.69437 18.4791C6.70962 18.0103 6.58762 17.7532 6.06912 17.8288C5.56587 17.9044 5.48962 17.6322 5.48962 17.1936C5.48962 16.7852 5.53537 16.513 6.05387 16.5432C6.96887 16.5735 7.88387 16.5735 8.79887 16.5432C9.31737 16.5281 9.36312 16.7852 9.36312 17.1936C9.36312 17.617 9.28687 17.9044 8.78362 17.8288C8.26512 17.7532 8.12787 17.9951 8.15837 18.4791C8.18887 18.9479 8.15837 19.4319 8.15837 19.9159Z" fill="#4C78E1"/>
<path d="M25.3603 21.0048C25.3755 19.7041 25.345 18.3884 25.3755 17.0877C25.3908 16.6189 25.162 16.513 24.7808 16.5735C24.4453 16.6189 23.9573 16.392 23.9725 17.0423C23.9878 17.9195 24.003 18.7967 24.0183 19.6739C24.0335 19.7193 24.0488 19.7646 24.0488 19.7949C24.0488 19.7495 24.0335 19.7041 24.0183 19.6739C23.9573 19.7041 23.8963 19.7495 23.8353 19.7798C23.2405 18.7211 22.4475 17.7985 21.7308 16.8306C21.3953 16.3617 20.892 16.634 20.4498 16.5886C20.221 16.5735 20.16 16.7398 20.16 16.9365C20.16 18.4488 20.16 19.9612 20.16 21.4736C20.16 21.9878 20.5565 21.8366 20.8158 21.8366C21.0903 21.8215 21.5478 22.0332 21.5478 21.4736C21.5325 20.5208 21.6393 19.568 21.4715 18.6152C21.5173 18.6152 21.563 18.585 21.5935 18.5547C22.2035 19.6285 23.0118 20.5662 23.7285 21.5795C24.0945 22.0937 24.674 21.882 25.1315 21.8215C25.5585 21.7307 25.3603 21.277 25.3603 21.0048Z" fill="#4372DF"/>
<path d="M14.9446 9.41986H6.0691C5.96235 9.41986 5.87085 9.32912 5.87085 9.22325V8.1797C5.87085 8.07384 5.96235 7.98309 6.0691 7.98309H14.9446C15.0513 7.98309 15.1428 8.07384 15.1428 8.1797V9.22325C15.1581 9.32912 15.0666 9.41986 14.9446 9.41986Z" fill="#4170DF"/>
<path d="M14.9446 12.3842H6.0691C5.96235 12.3842 5.87085 12.2934 5.87085 12.1876V11.144C5.87085 11.0381 5.96235 10.9474 6.0691 10.9474H14.9446C15.0513 10.9474 15.1428 11.0381 15.1428 11.144V12.1876C15.1581 12.2934 15.0666 12.3842 14.9446 12.3842Z" fill="#4170DF"/>
<path d="M14.9446 15.5904H6.0691C5.96235 15.5904 5.87085 15.4997 5.87085 15.3938V14.3502C5.87085 14.2444 5.96235 14.1536 6.0691 14.1536H14.9446C15.0513 14.1536 15.1428 14.2444 15.1428 14.3502V15.3938C15.1581 15.4997 15.0666 15.5904 14.9446 15.5904Z" fill="#4170DF"/>
<path d="M1.23486 3.82403V26.1016C1.23486 27.614 2.50061 28.8541 4.05611 28.8541H44.1788C45.7342 28.8541 47 27.6291 47 26.1016V3.82403C47 2.31163 45.7342 1.07147 44.1788 1.07147H4.05611C2.50061 1.07147 1.23486 2.31163 1.23486 3.82403Z" stroke="#4170DF" stroke-width="2" stroke-miterlimit="10"/>
</svg>
