<svg width="53" height="36" viewBox="0 0 53 36" fill="none" xmlns="http://www.w3.org/2000/svg">
<path d="M13.2574 33.5176V31.4003C13.2574 30.5972 12.7611 30.0569 11.9145 30.0569C11.4913 30.0569 11.0388 30.2029 10.7177 30.6556C10.4695 30.276 10.1192 30.0569 9.59378 30.0569C9.24348 30.0569 8.89318 30.1591 8.61585 30.5534V30.1299H7.87146V33.503H8.61585V31.6339C8.61585 31.0353 8.93696 30.7578 9.41863 30.7578C9.91489 30.7578 10.163 31.0791 10.163 31.6339V33.503H10.9074V31.6339C10.9074 31.0353 11.2577 30.7578 11.7102 30.7578C12.2065 30.7578 12.4546 31.0791 12.4546 31.6339V33.503H13.2574V33.5176ZM24.1897 30.1445H22.9929V29.1224H22.2485V30.1445H21.5771V30.8162H22.2485V32.3641C22.2485 33.138 22.5696 33.5906 23.4015 33.5906C23.7227 33.5906 24.073 33.4884 24.3211 33.3424L24.1168 32.7145C23.9124 32.8605 23.6643 32.8897 23.4891 32.8897C23.1388 32.8897 22.9929 32.6853 22.9929 32.3202V30.8016H24.1897V30.1445ZM30.4368 30.0715C30.0135 30.0715 29.7362 30.276 29.561 30.568V30.1445H28.8312V33.5176H29.5756V31.6193C29.5756 31.0499 29.8238 30.7432 30.2762 30.7432C30.4222 30.7432 30.5973 30.7724 30.7287 30.8162L30.9331 30.1153C30.8017 30.0715 30.5828 30.0715 30.4368 30.0715ZM20.9786 30.422C20.6283 30.1737 20.1321 30.0715 19.6066 30.0715C18.76 30.0715 18.2054 30.495 18.2054 31.1667C18.2054 31.7362 18.6287 32.0428 19.3585 32.145L19.7088 32.1742C20.0883 32.2472 20.3072 32.3495 20.3072 32.5247C20.3072 32.7729 20.0299 32.9481 19.5336 32.9481C19.0374 32.9481 18.6579 32.7729 18.4097 32.5977L18.0594 33.1672C18.4389 33.4446 18.979 33.5906 19.5044 33.5906C20.4824 33.5906 21.0516 33.138 21.0516 32.4955C21.0516 31.8968 20.5991 31.5755 19.8985 31.4733L19.5482 31.4441C19.2271 31.4149 18.979 31.3419 18.979 31.1229C18.979 30.8746 19.2271 30.7432 19.6066 30.7432C20.0299 30.7432 20.4532 30.9184 20.6575 31.0207L20.9786 30.422ZM40.6102 30.0715C40.1869 30.0715 39.9096 30.276 39.7344 30.568V30.1445H38.99V33.5176H39.7344V31.6193C39.7344 31.0499 39.9825 30.7432 40.435 30.7432C40.581 30.7432 40.7561 30.7724 40.8875 30.8162L41.0918 30.1153C40.9605 30.0715 40.7415 30.0715 40.6102 30.0715ZM31.1812 31.8238C31.1812 32.8459 31.8818 33.576 32.9765 33.576C33.4728 33.576 33.8231 33.4738 34.1734 33.1964L33.8231 32.5977C33.5457 32.8021 33.2538 32.9189 32.9473 32.9189C32.3489 32.9189 31.9256 32.4955 31.9256 31.8238C31.9256 31.1959 32.3489 30.7724 32.9473 30.7286C33.2684 30.7286 33.5457 30.8308 33.8231 31.0499L34.1734 30.4512C33.8231 30.1737 33.4728 30.0715 32.9765 30.0715C31.8818 30.0715 31.1812 30.8016 31.1812 31.8238ZM37.9975 31.8238V30.1299H37.2531V30.5534C37.005 30.2322 36.6547 30.0569 36.2022 30.0569C35.2535 30.0569 34.5091 30.8016 34.5091 31.8092C34.5091 32.8313 35.2535 33.5614 36.2022 33.5614C36.6985 33.5614 37.0488 33.3862 37.2531 33.065V33.4884H37.9975V31.8238ZM35.2972 31.8238C35.2972 31.2251 35.6767 30.7286 36.319 30.7286C36.9174 30.7286 37.3407 31.1813 37.3407 31.8238C37.3407 32.4225 36.9174 32.9189 36.319 32.9189C35.6767 32.8897 35.2972 32.4225 35.2972 31.8238ZM26.4667 30.0715C25.4888 30.0715 24.7736 30.7724 24.7736 31.8238C24.7736 32.8751 25.4742 33.576 26.4959 33.576C26.9922 33.576 27.4738 33.43 27.8679 33.1234L27.5176 32.5977C27.2403 32.8021 26.89 32.9481 26.5397 32.9481C26.0872 32.9481 25.6201 32.7437 25.518 32.145H28.0139V31.8676C28.0577 30.7724 27.4154 30.0715 26.4667 30.0715ZM26.4667 30.6994C26.9192 30.6994 27.2403 30.9769 27.3133 31.5025H25.5617C25.6201 31.0499 25.9412 30.6994 26.4667 30.6994ZM44.7846 31.8238V28.8011H44.0402V30.5534C43.7921 30.2322 43.4418 30.0569 42.9893 30.0569C42.0406 30.0569 41.2962 30.8016 41.2962 31.8092C41.2962 32.8313 42.0406 33.5614 42.9893 33.5614C43.4856 33.5614 43.8359 33.3862 44.0402 33.065V33.4884H44.7846V31.8238ZM42.0844 31.8238C42.0844 31.2251 42.4639 30.7286 43.1061 30.7286C43.7045 30.7286 44.1278 31.1813 44.1278 31.8238C44.1278 32.4225 43.7045 32.9189 43.1061 32.9189C42.4639 32.8897 42.0844 32.4225 42.0844 31.8238ZM17.4026 31.8238V30.1299H16.6582V30.5534C16.4101 30.2322 16.0598 30.0569 15.6073 30.0569C14.6586 30.0569 13.9142 30.8016 13.9142 31.8092C13.9142 32.8313 14.6586 33.5614 15.6073 33.5614C16.1036 33.5614 16.4539 33.3862 16.6582 33.065V33.4884H17.4026V31.8238ZM14.6586 31.8238C14.6586 31.2251 15.0381 30.7286 15.6803 30.7286C16.2787 30.7286 16.702 31.1813 16.702 31.8238C16.702 32.4225 16.2787 32.9189 15.6803 32.9189C15.0381 32.8897 14.6586 32.4225 14.6586 31.8238Z" fill="white"/>
<path d="M31.8234 4.5033H20.7451V24.4059H31.8234V4.5033Z" fill="#FF5F00"/>
<path d="M21.4458 14.4473C21.4458 10.4026 23.3433 6.81046 26.2625 4.48874C24.1169 2.7949 21.4166 1.78735 18.4536 1.78735C11.4622 1.78735 5.79895 7.45296 5.79895 14.4473C5.79895 21.4417 11.4622 27.1073 18.4536 27.1073C21.402 27.1073 24.1169 26.0852 26.2625 24.406C23.3433 22.128 21.4458 18.4921 21.4458 14.4473Z" fill="#EB001B"/>
<path d="M46.7551 14.4473C46.7551 21.4417 41.0919 27.1073 34.1005 27.1073C31.1521 27.1073 28.4372 26.0852 26.2916 24.406C29.24 22.0842 31.1083 18.4921 31.1083 14.4473C31.1083 10.4026 29.2108 6.81046 26.2916 4.48874C28.4372 2.7949 31.1375 1.78735 34.1005 1.78735C41.0919 1.78735 46.7551 7.48216 46.7551 14.4473Z" fill="#F79E1B"/>
</svg>
