<svg width="61" height="36" viewBox="0 0 61 36" fill="none" xmlns="http://www.w3.org/2000/svg">
<g clip-path="url(#clip0)">
<path d="M25.8363 26.9085V24.2561C25.8363 23.25 25.2985 22.5732 24.3812 22.5732C23.9225 22.5732 23.4322 22.7561 23.0842 23.3232C22.8153 22.8476 22.4357 22.5732 21.8664 22.5732C21.4868 22.5732 21.1072 22.7012 20.8066 23.1951V22.6646H20V26.8902H20.8066V24.5488C20.8066 23.7988 21.1546 23.4512 21.6766 23.4512C22.2143 23.4512 22.4832 23.8537 22.4832 24.5488V26.8902H23.2898V24.5488C23.2898 23.7988 23.6694 23.4512 24.1597 23.4512C24.6975 23.4512 24.9664 23.8537 24.9664 24.5488V26.8902H25.8363V26.9085ZM37.6829 22.6829H36.3859V21.4024H35.5793V22.6829H34.8517V23.5244H35.5793V25.4634C35.5793 26.4329 35.9272 27 36.8288 27C37.1767 27 37.5563 26.872 37.8252 26.689L37.6038 25.9024C37.3824 26.0854 37.1135 26.122 36.9237 26.122C36.5441 26.122 36.3859 25.8659 36.3859 25.4085V23.5061H37.6829V22.6829ZM44.4524 22.5915C43.9937 22.5915 43.6932 22.8476 43.5034 23.2134V22.6829H42.7125V26.9085H43.5192V24.5305C43.5192 23.8171 43.7881 23.4329 44.2784 23.4329C44.4365 23.4329 44.6263 23.4695 44.7687 23.5244L44.9901 22.6463C44.8478 22.5915 44.6105 22.5915 44.4524 22.5915ZM34.2032 23.0305C33.8236 22.7195 33.2859 22.5915 32.7165 22.5915C31.7991 22.5915 31.1981 23.122 31.1981 23.9634C31.1981 24.6768 31.6568 25.061 32.4476 25.189L32.8272 25.2256C33.2384 25.3171 33.4757 25.4451 33.4757 25.6646C33.4757 25.9756 33.1752 26.1951 32.6374 26.1951C32.0996 26.1951 31.6884 25.9756 31.4195 25.7561L31.0399 26.4695C31.4512 26.8171 32.0364 27 32.6058 27C33.6655 27 34.2823 26.4329 34.2823 25.628C34.2823 24.878 33.792 24.4756 33.0328 24.3476L32.6532 24.311C32.3053 24.2744 32.0364 24.1829 32.0364 23.9085C32.0364 23.5976 32.3053 23.4329 32.7165 23.4329C33.1752 23.4329 33.6338 23.6524 33.8553 23.7805L34.2032 23.0305ZM55.4765 22.5915C55.0178 22.5915 54.7173 22.8476 54.5275 23.2134V22.6829H53.7208V26.9085H54.5275V24.5305C54.5275 23.8171 54.7964 23.4329 55.2867 23.4329C55.4448 23.4329 55.6346 23.4695 55.777 23.5244L55.9984 22.6463C55.8561 22.5915 55.6188 22.5915 55.4765 22.5915ZM45.259 24.7866C45.259 26.0671 46.0182 26.9817 47.2044 26.9817C47.7422 26.9817 48.1218 26.8537 48.5014 26.5061L48.1218 25.7561C47.8213 26.0122 47.5049 26.1585 47.1728 26.1585C46.5243 26.1585 46.0656 25.628 46.0656 24.7866C46.0656 24 46.5243 23.4695 47.1728 23.4146C47.5208 23.4146 47.8213 23.5427 48.1218 23.8171L48.5014 23.0671C48.1218 22.7195 47.7422 22.5915 47.2044 22.5915C46.0182 22.5915 45.259 23.5061 45.259 24.7866ZM52.6453 24.7866V22.6646H51.8387V23.1951C51.5698 22.7927 51.1902 22.5732 50.6999 22.5732C49.6718 22.5732 48.8652 23.5061 48.8652 24.7683C48.8652 26.0488 49.6718 26.9634 50.6999 26.9634C51.2376 26.9634 51.6172 26.7439 51.8387 26.3415V26.872H52.6453V24.7866ZM49.7193 24.7866C49.7193 24.0366 50.1305 23.4146 50.8264 23.4146C51.4749 23.4146 51.9336 23.9817 51.9336 24.7866C51.9336 25.5366 51.4749 26.1585 50.8264 26.1585C50.1305 26.122 49.7193 25.5366 49.7193 24.7866ZM40.1503 22.5915C39.0905 22.5915 38.3155 23.4695 38.3155 24.7866C38.3155 26.1037 39.0747 26.9817 40.1819 26.9817C40.7197 26.9817 41.2416 26.7988 41.6686 26.4146L41.289 25.7561C40.9885 26.0122 40.6089 26.1951 40.2293 26.1951C39.739 26.1951 39.2329 25.939 39.1222 25.189H41.8268V24.8415C41.8743 23.4695 41.1783 22.5915 40.1503 22.5915ZM40.1503 23.378C40.6406 23.378 40.9885 23.7256 41.0676 24.3841H39.1696C39.2329 23.8171 39.5809 23.378 40.1503 23.378ZM60 24.7866V21H59.1934V23.1951C58.9245 22.7927 58.5449 22.5732 58.0546 22.5732C57.0265 22.5732 56.2199 23.5061 56.2199 24.7683C56.2199 26.0488 57.0265 26.9634 58.0546 26.9634C58.5923 26.9634 58.9719 26.7439 59.1934 26.3415V26.872H60V24.7866ZM57.0739 24.7866C57.0739 24.0366 57.4852 23.4146 58.1811 23.4146C58.8296 23.4146 59.2883 23.9817 59.2883 24.7866C59.2883 25.5366 58.8296 26.1585 58.1811 26.1585C57.4852 26.122 57.0739 25.5366 57.0739 24.7866ZM30.3282 24.7866V22.6646H29.5216V23.1951C29.2527 22.7927 28.8731 22.5732 28.3828 22.5732C27.3547 22.5732 26.548 23.5061 26.548 24.7683C26.548 26.0488 27.3547 26.9634 28.3828 26.9634C28.9205 26.9634 29.3001 26.7439 29.5216 26.3415V26.872H30.3282V24.7866ZM27.3547 24.7866C27.3547 24.0366 27.7659 23.4146 28.4618 23.4146C29.1103 23.4146 29.569 23.9817 29.569 24.7866C29.569 25.5366 29.1103 26.1585 28.4618 26.1585C27.7659 26.122 27.3547 25.5366 27.3547 24.7866Z" fill="white"/>
<path d="M11 20H7V28H11V20Z" fill="#FF5F00"/>
<path d="M7.11698 24C7.11698 22.4025 7.85877 20.9839 9 20.0669C8.1612 19.3979 7.10556 19 5.94722 19C3.21398 19 1 21.2376 1 24C1 26.7624 3.21398 29 5.94722 29C7.09986 29 8.1612 28.5963 9 27.9331C7.85877 27.0334 7.11698 25.5975 7.11698 24Z" fill="#EB001B"/>
<path d="M17 24C17 26.7624 14.786 29 12.0528 29C10.9001 29 9.8388 28.5963 9 27.9331C10.1526 27.0161 10.883 25.5975 10.883 24C10.883 22.4025 10.1412 20.9839 9 20.0669C9.8388 19.3979 10.8944 19 12.0528 19C14.786 19 17 21.2491 17 24Z" fill="#F79E1B"/>
<path d="M34.889 7.12549C34.896 7.13849 34.91 7.15799 34.931 7.15799C35.736 7.10599 36.513 7.25549 37.269 7.49599C37.325 7.51549 37.353 7.53499 37.339 7.59999C37.206 8.14599 37.08 8.69849 36.954 9.25099C36.94 9.32899 36.912 9.33549 36.842 9.30299C36.184 9.03649 35.498 8.90649 34.777 8.93899C34.525 8.95199 34.28 8.99099 34.049 9.08849C33.916 9.14699 33.797 9.22499 33.699 9.33549C33.51 9.55649 33.51 9.81649 33.713 10.031C33.895 10.226 34.133 10.3495 34.364 10.473C34.805 10.7005 35.26 10.8955 35.673 11.162C35.946 11.331 36.191 11.5195 36.401 11.7535C36.8 12.1955 36.94 12.709 36.898 13.281C36.835 14.0415 36.492 14.672 35.855 15.14C35.274 15.569 34.609 15.816 33.881 15.92C33.692 15.946 33.496 15.9655 33.307 15.985C33.286 15.985 33.265 15.985 33.265 16.0045C32.929 16.0045 32.6 16.0045 32.264 16.0045C32.103 15.9525 31.935 15.9655 31.767 15.9395C31.235 15.868 30.71 15.777 30.206 15.595C30.115 15.5625 30.094 15.53 30.115 15.439C30.248 14.88 30.374 14.3275 30.5 13.7685C30.521 13.6905 30.535 13.671 30.619 13.71C31.151 13.9505 31.711 14.1325 32.306 14.1845C32.81 14.23 33.321 14.2495 33.804 14.0675C34.07 13.9635 34.301 13.8205 34.378 13.5345C34.434 13.3135 34.399 13.112 34.224 12.943C33.993 12.709 33.699 12.5595 33.398 12.4165C33.013 12.2345 32.621 12.0655 32.264 11.8315C31.774 11.5065 31.347 11.1295 31.172 10.577C30.941 9.84899 31.102 9.16649 31.564 8.55549C32.019 7.94449 32.677 7.59349 33.419 7.37249C33.846 7.24249 34.287 7.18399 34.735 7.15149C34.763 7.15149 34.805 7.17099 34.826 7.13199C34.854 7.12549 34.868 7.12549 34.889 7.12549Z" fill="white"/>
<path d="M22.016 13.1249C22.289 12.4814 22.555 11.8639 22.821 11.2399C23.367 9.95943 23.913 8.67243 24.459 7.39193C24.487 7.32043 24.522 7.29443 24.606 7.29443C25.369 7.30093 26.132 7.30093 26.895 7.29443C27 7.29443 27.007 7.31393 26.965 7.39843C25.698 10.1934 24.438 12.9884 23.178 15.7834C23.143 15.8549 23.108 15.8744 23.024 15.8744C22.254 15.8744 21.484 15.8744 20.714 15.8744C20.63 15.8744 20.595 15.8614 20.574 15.7769C20.357 14.9839 20.133 14.1974 19.916 13.4044C19.692 12.5984 19.468 11.7989 19.244 10.9929C19.055 10.3234 18.866 9.65393 18.684 8.97793C18.593 8.63343 18.397 8.37993 18.04 8.22393C17.396 7.94443 16.724 7.75593 16.038 7.59993C16.01 7.59343 15.975 7.58693 15.947 7.58043C15.765 7.54143 15.772 7.54143 15.807 7.37893C15.821 7.31393 15.849 7.29443 15.919 7.29443C17.235 7.29443 18.551 7.29443 19.867 7.29443C20.462 7.29443 20.889 7.63243 21.001 8.18493C21.33 9.79693 21.652 11.4024 21.981 13.0144C21.988 13.0404 22.002 13.0729 22.016 13.1249Z" fill="white"/>
<path d="M27.259 15.8746C26.895 15.8746 26.524 15.8746 26.16 15.8746C26.076 15.8746 26.062 15.8551 26.083 15.7836C26.286 14.8996 26.496 14.0156 26.699 13.1316C26.993 11.8641 27.28 10.6031 27.574 9.33559C27.721 8.68559 27.875 8.03559 28.022 7.38559C28.036 7.31409 28.057 7.28809 28.141 7.28809C28.869 7.28809 29.604 7.29459 30.332 7.28809C30.43 7.28809 30.43 7.32059 30.409 7.38559C30.206 8.26959 30.003 9.15359 29.793 10.0376C29.38 11.8316 28.967 13.6256 28.554 15.4196C28.526 15.5431 28.491 15.6666 28.47 15.7901C28.456 15.8551 28.428 15.8681 28.365 15.8681C27.994 15.8681 27.623 15.8746 27.259 15.8746Z" fill="white"/>
<path d="M36.786 15.8679C36.947 15.5039 37.108 15.1529 37.262 14.8084C37.997 13.1834 38.732 11.5519 39.467 9.92693C39.754 9.28343 40.048 8.64643 40.335 8.00293C40.482 7.66493 40.72 7.41793 41.119 7.33343C41.217 7.31393 41.315 7.30093 41.413 7.30093C42.05 7.30093 42.687 7.30093 43.331 7.29443C43.415 7.29443 43.436 7.32043 43.457 7.39193C44.08 10.1869 44.71 12.9754 45.34 15.7704C45.361 15.8614 45.333 15.8679 45.249 15.8679C44.591 15.8679 43.926 15.8679 43.268 15.8679C43.184 15.8679 43.149 15.8419 43.135 15.7704C43.058 15.4129 42.974 15.0554 42.897 14.6979C42.883 14.6134 42.848 14.5809 42.75 14.5809C41.805 14.5874 40.86 14.5874 39.922 14.5809C39.838 14.5809 39.796 14.6004 39.761 14.6784C39.621 15.0489 39.474 15.4194 39.327 15.7899C39.306 15.8354 39.292 15.8679 39.229 15.8679C38.417 15.8679 37.612 15.8679 36.786 15.8679ZM41.735 9.59543C41.707 9.66693 41.7 9.71243 41.679 9.75143C41.42 10.3884 41.189 11.0319 40.923 11.6624C40.776 12.0134 40.657 12.3709 40.517 12.7284C40.489 12.8064 40.496 12.8324 40.594 12.8324C41.175 12.8259 41.756 12.8324 42.33 12.8324C42.47 12.8324 42.47 12.8324 42.435 12.7024C42.253 11.8899 42.071 11.0774 41.889 10.2649C41.847 10.0569 41.791 9.84243 41.735 9.59543Z" fill="white"/>
</g>
<defs>
<clipPath id="clip0">
<rect width="61" height="36" fill="white"/>
</clipPath>
</defs>
</svg>
