<svg width="69" height="22" viewBox="0 0 69 22" fill="none" xmlns="http://www.w3.org/2000/svg">
<path d="M10.8047 2.13452C11.1864 2.33602 11.6227 2.33602 12.0181 2.45692C12.6179 2.63155 13.2042 2.87335 13.7632 3.15544C13.9813 3.26291 14.0495 3.33007 13.8313 3.53157C13.2315 4.09576 13.2451 4.09576 12.6725 3.51814C12.4407 3.28977 12.2498 2.88678 11.9635 2.88678C11.7181 2.90021 11.4864 3.24947 11.2546 3.45097C10.8728 3.7868 10.4911 4.1092 10.1366 4.44503C9.98665 4.59279 9.87758 4.61966 9.72761 4.43159C9.45494 4.1092 9.14136 3.81367 8.86869 3.49127C8.73235 3.33007 8.65055 3.34351 8.50058 3.46441C7.32809 4.51219 6.16922 5.54655 4.99673 6.56747C4.77859 6.76896 4.92856 6.84956 5.03763 6.97046C5.70568 7.70929 6.38736 8.43468 7.06905 9.1735C7.24628 9.36157 7.28718 9.46903 7.05541 9.67053C6.31919 10.2885 6.33283 10.3019 6.98724 11.0273C7.51896 11.6049 8.03704 12.196 8.56875 12.7736C8.73235 12.9482 8.74599 13.0423 8.55511 13.2035C8.30971 13.4049 7.88707 13.5796 7.91433 13.8751C7.92797 14.1169 8.28244 14.3453 8.48695 14.5871C9.34587 15.5408 10.2184 16.4677 11.0773 17.4349C11.2546 17.6364 11.35 17.6364 11.5409 17.4483C12.0726 16.9513 12.6179 16.4677 13.1497 15.9707C13.3133 15.8229 13.4087 15.8095 13.5587 15.9841C14.0222 16.5214 14.4858 17.0588 14.9766 17.5827C15.1811 17.7976 15.1129 17.8916 14.922 18.0394C13.7632 18.8588 12.4816 19.4096 11.0773 19.6514C10.9955 19.6648 10.8728 19.6245 10.8183 19.7588C10.0139 19.7588 9.20953 19.7588 8.40514 19.7588C8.11884 19.5708 7.76436 19.5842 7.43715 19.517C3.7288 18.6036 0.961165 15.2722 0.715759 11.6049C0.429452 7.0242 3.647 3.02111 8.15974 2.25542C8.25517 2.24199 8.36424 2.28229 8.41878 2.14795C9.18226 2.13452 10.0003 2.13452 10.8047 2.13452Z" fill="#026BB4"/>
<path d="M20.6209 7.30641C21.7661 7.25268 21.7661 7.25268 21.9979 8.34077C22.2842 9.71095 22.5842 11.0811 22.8841 12.4647C23.0341 12.2901 23.075 12.102 23.1295 11.9006C23.4703 10.4901 23.8385 9.06616 24.1793 7.65567C24.2475 7.34671 24.3838 7.23925 24.6974 7.27955C24.9701 7.30641 25.2155 7.22581 25.3245 7.64224C25.7199 9.26765 26.1834 10.8931 26.647 12.6394C26.797 11.8603 26.9469 11.202 27.0833 10.5438C27.2741 9.59005 27.465 8.6363 27.6286 7.66911C27.6831 7.36015 27.8059 7.26611 28.1331 7.26611C28.9374 7.29298 28.9374 7.27955 28.7602 8.05867C28.2967 10.0602 27.8331 12.0483 27.3832 14.0499C27.3287 14.3185 27.2332 14.4529 26.9469 14.4126C26.8242 14.3991 26.6879 14.3991 26.5652 14.4126C26.2516 14.4663 26.1562 14.3051 26.088 14.0364C25.7063 12.5991 25.2973 11.1483 24.9019 9.71095C24.8746 9.63035 24.8882 9.53632 24.7519 9.45572C24.452 10.5707 24.152 11.6856 23.8521 12.7871C23.7294 13.217 23.6067 13.6603 23.5112 14.1036C23.4567 14.3454 23.334 14.4394 23.075 14.426C22.2979 14.4126 22.3115 14.426 22.1342 13.6737C21.698 11.7931 21.2617 9.89901 20.8254 8.01837C20.7981 7.89747 20.8254 7.73627 20.6754 7.64224C20.6209 7.53478 20.6209 7.41388 20.6209 7.30641Z" fill="#076EB5"/>
<path d="M18.5622 11.3901C18.2759 11.6453 17.976 11.8871 17.7033 12.1692C17.5397 12.3304 17.4306 12.3035 17.3079 12.1289C17.267 12.0886 17.2261 12.0483 17.1989 12.008C17.008 11.7528 16.5308 11.4841 16.6262 11.2826C16.7762 10.9333 17.1852 10.705 17.4988 10.4229C17.6488 10.2885 17.7169 10.4363 17.8124 10.5169C18.0714 10.7856 18.3168 11.0542 18.5759 11.3095C18.5622 11.3229 18.5622 11.3632 18.5622 11.3901Z" fill="#076EB5"/>
<path d="M40.8805 9.46915C40.8805 10.9871 40.8669 12.505 40.8941 14.0096C40.9078 14.3991 40.7442 14.4394 40.417 14.426C40.1034 14.4126 39.9262 14.4126 39.9398 14.0096C39.9671 11.9006 39.9534 9.79155 39.9398 7.68254C39.9398 7.33327 40.0489 7.26611 40.3761 7.27954C41.2077 7.29298 41.2077 7.27954 41.5077 8.04523C42.1075 9.50945 42.6938 10.9871 43.3073 12.4513C43.3618 12.5722 43.3618 12.7334 43.5254 12.8274C44.1662 11.1483 44.8343 9.48258 45.4614 7.80343C45.6114 7.42731 45.775 7.25268 46.2249 7.27954C46.9611 7.31984 46.9611 7.29298 46.9611 8.0318C46.9611 10.0065 46.9475 11.9946 46.9747 13.9827C46.9747 14.3588 46.8929 14.5066 46.4976 14.4529C46.4021 14.4394 46.2931 14.4394 46.1976 14.4529C45.884 14.5066 45.8159 14.3454 45.8159 14.0767C45.8295 12.6797 45.8295 11.2692 45.8295 9.87214C45.8295 9.72438 45.8295 9.56318 45.8295 9.41542C45.8022 9.40198 45.775 9.40198 45.7477 9.38855C45.5977 9.76468 45.4341 10.1542 45.2705 10.5304C44.7934 11.7394 44.3025 12.9483 43.8254 14.1573C43.7436 14.3723 43.6345 14.4663 43.3891 14.4529C43.1437 14.4394 43.0074 14.3991 42.9119 14.1439C42.3393 12.72 41.7531 11.2961 41.1532 9.85871C41.0986 9.72438 41.0305 9.59005 40.9759 9.45572C40.9487 9.45572 40.9214 9.46915 40.8805 9.46915Z" fill="#076EB5"/>
<path d="M35.5361 9.57641C35.8633 9.48238 36.1633 9.37491 36.4632 9.30775C37.5539 9.06595 38.4401 9.58984 38.7264 10.6645C38.9309 11.4436 38.9173 12.2362 38.6855 13.0153C38.3174 14.184 37.2949 14.7347 35.9179 14.5198C34.4863 14.3049 34.4591 14.2512 34.4591 12.8407C34.4591 11.0675 34.4727 9.30775 34.4454 7.53457C34.4318 7.15844 34.5273 6.98381 34.9226 6.91664C35.5498 6.79574 35.5498 6.76888 35.5498 7.41367C35.5361 8.12563 35.5361 8.83759 35.5361 9.57641ZM35.5361 12.0078C35.5361 12.478 35.5361 12.9481 35.5361 13.4049C35.5361 13.5258 35.4952 13.6601 35.6861 13.7138C36.4905 13.9153 37.3358 13.9019 37.6221 12.8944C37.7721 12.3571 37.8266 11.8198 37.7312 11.269C37.5539 10.154 36.8313 9.77791 35.7815 10.2884C35.6043 10.369 35.5225 10.463 35.5361 10.6645C35.5498 11.0944 35.5361 11.5511 35.5361 12.0078Z" fill="#076EB5"/>
<path d="M53.6553 12.1556C53.6553 11.5377 53.6689 10.9467 53.6417 10.3287C53.628 10.0869 53.7098 9.9526 53.928 9.8317C54.7323 9.42871 55.5776 9.21377 56.4911 9.25407C57.4591 9.30781 57.909 9.73767 57.9226 10.6914C57.9363 11.8332 57.9226 12.9885 57.9363 14.1169C57.9363 14.3721 57.8545 14.4258 57.609 14.4124C56.6683 14.3855 56.8592 14.5199 56.8456 13.7005C56.8319 12.8407 56.8592 11.981 56.8319 11.1079C56.8183 10.2078 56.4366 9.9123 55.5367 10.1004C55.4413 10.1138 55.3459 10.1541 55.2504 10.181C54.8414 10.2616 54.6914 10.4899 54.7051 10.9198C54.746 11.9541 54.7051 12.9885 54.7187 14.0094C54.7187 14.2915 54.6642 14.4124 54.3506 14.399C53.628 14.3855 53.628 14.399 53.628 13.687C53.6553 13.2034 53.6553 12.6795 53.6553 12.1556Z" fill="#076EB5"/>
<path d="M52.7145 11.8736C52.7009 12.196 52.7009 12.4781 52.6327 12.7602C52.3464 13.9827 51.5284 14.6006 50.2332 14.5468C49.0743 14.5065 48.3109 13.7812 48.1064 12.599C48.0246 12.0886 48.0382 11.5781 48.1336 11.0811C48.379 9.88554 49.2925 9.22731 50.574 9.29448C51.7329 9.34821 52.5646 10.1811 52.6873 11.4304C52.7009 11.5647 52.7009 11.7393 52.7145 11.8736ZM51.6102 11.9274C51.6102 11.5244 51.5829 11.108 51.4057 10.7318C51.2012 10.302 50.9013 10.0064 50.3968 10.0064C49.8924 9.993 49.5515 10.2751 49.3743 10.705C49.0471 11.5109 49.0607 12.3304 49.3743 13.1364C49.5515 13.5931 49.906 13.8215 50.4241 13.808C50.9285 13.7946 51.2421 13.5394 51.433 13.0826C51.5829 12.7065 51.6238 12.3169 51.6102 11.9274Z" fill="#076EB5"/>
<path d="M63.0761 13.3377C63.1852 14.09 63.1579 14.1303 62.4763 14.3586C61.9309 14.5467 61.3447 14.587 60.772 14.5064C59.7223 14.3586 59.0815 13.7138 58.9315 12.6258C58.8224 11.9272 58.8361 11.2153 59.136 10.5436C59.545 9.61673 60.4312 9.14657 61.5219 9.26747C62.449 9.37494 63.0625 10.0197 63.2261 11.0272C63.4033 12.1153 63.4033 12.1153 62.299 12.1153C61.631 12.1153 60.9765 12.1287 60.3221 12.1019C59.9813 12.0884 59.9404 12.2228 59.9813 12.5049C60.1313 13.5795 60.9493 14.0631 62.1081 13.7273C62.4217 13.6333 62.7353 13.4721 63.0761 13.3377ZM61.1129 11.3899C61.4128 11.3899 61.7128 11.4033 62.0127 11.3899C62.0945 11.3899 62.2172 11.4436 62.2445 11.2824C62.299 11.0004 61.9582 10.2884 61.6582 10.1003C61.2901 9.87197 60.8402 9.89883 60.4994 10.1809C60.1858 10.4496 60.0631 10.7989 59.9949 11.1884C59.954 11.3899 60.0631 11.4033 60.2131 11.4033C60.513 11.3899 60.8129 11.3899 61.1129 11.3899Z" fill="#076EB5"/>
<path d="M33.3684 13.3513C33.4502 14.1438 33.4502 14.1438 32.714 14.3856C32.1822 14.5603 31.6505 14.5871 31.1052 14.5065C30.1781 14.3856 29.5646 13.8752 29.3328 12.9617C29.1419 12.2632 29.1283 11.5647 29.3464 10.8662C29.6737 9.73777 30.5735 9.14671 31.8005 9.25417C32.7958 9.34821 33.4365 10.0467 33.5729 11.1751C33.6819 12.102 33.6819 12.102 32.7549 12.102C32.0459 12.102 31.3233 12.1154 30.6007 12.0886C30.3553 12.0751 30.2872 12.1692 30.3144 12.411C30.369 13.4991 31.2688 14.0498 32.4549 13.7006C32.7276 13.6334 33.0275 13.4856 33.3684 13.3513ZM31.3915 11.39C31.7051 11.39 32.0186 11.39 32.3458 11.39C32.4958 11.39 32.5776 11.3766 32.5776 11.1885C32.564 10.6109 32.1413 10.0467 31.6369 9.96613C31.1325 9.88553 30.6689 10.2079 30.4508 10.7856C30.2326 11.39 30.2326 11.39 30.8461 11.39C31.0098 11.39 31.2006 11.39 31.3915 11.39Z" fill="#076EB5"/>
<path d="M63.5533 9.46903C63.5942 9.45559 63.6078 9.44216 63.6078 9.44216C64.6304 9.37499 64.644 9.37499 64.9848 10.3153C65.3121 11.2288 65.6256 12.1557 65.9937 13.1631C66.3618 11.9945 66.7027 10.9332 67.0163 9.87202C67.1253 9.50933 67.2889 9.34813 67.6707 9.41529C67.8479 9.45559 68.0388 9.42873 68.2978 9.42873C68.0661 10.0601 67.8616 10.6377 67.6298 11.2288C67.1935 12.4378 66.7572 13.6467 66.28 14.8423C65.9937 15.5946 65.5711 16.2796 64.6985 16.4946C64.5213 16.5349 64.2623 16.7095 64.1532 16.4274C64.0169 16.0916 64.1805 15.7692 64.4668 15.6752C65.1757 15.4468 65.5575 14.6542 65.2984 13.9557C64.7667 12.5855 64.235 11.2153 63.7033 9.84516C63.6488 9.72426 63.6078 9.58992 63.5533 9.46903Z" fill="#076EB5"/>
<path d="M10.4775 7.03758C10.423 7.07788 10.3548 7.11818 10.3003 7.15848C9.71401 7.68237 9.12776 8.19283 8.55515 8.71673C8.40518 8.85106 8.32337 8.85106 8.18704 8.70329C7.68259 8.12567 7.16451 7.56148 6.6328 7.01072C6.48283 6.84952 6.45556 6.75549 6.64643 6.60772C7.24631 6.09726 7.81893 5.57337 8.40518 5.04947C8.51424 4.95544 8.59605 4.90171 8.71875 5.03604C9.2641 5.65396 9.83671 6.25846 10.3821 6.86295C10.4093 6.91668 10.423 6.95698 10.4775 7.03758Z" fill="#026BB4"/>
<path d="M12.0044 10.6244C11.9499 10.6647 11.8681 10.705 11.7999 10.7722C11.2273 11.2826 10.6547 11.7931 10.0821 12.3035C9.94577 12.4244 9.85033 12.4782 9.70036 12.3035C9.16865 11.7125 8.63693 11.1214 8.09159 10.5304C7.96888 10.396 7.98252 10.3154 8.11885 10.1945C8.71874 9.68408 9.29135 9.16018 9.8776 8.63629C9.97303 8.55569 10.0548 8.40792 10.2184 8.59599C10.7638 9.21391 11.3228 9.81841 11.8817 10.4229C11.9226 10.4766 11.9499 10.5304 12.0044 10.6244Z" fill="#026BB4"/>
<path d="M11.3091 16.1184C11.2818 16.0513 11.2682 15.9707 11.2273 15.9169C10.6956 15.3259 10.1639 14.7348 9.61852 14.1437C9.49582 14.0228 9.46855 13.9288 9.63216 13.8079C10.232 13.2975 10.8183 12.7736 11.3909 12.2497C11.5272 12.1288 11.6227 12.075 11.7726 12.2497C12.2907 12.8407 12.8224 13.4184 13.3541 13.996C13.4632 14.1034 13.5314 14.1975 13.3678 14.3452C12.7543 14.8826 12.1544 15.4199 11.5409 15.9572C11.4863 15.9841 11.4454 16.011 11.3091 16.1184Z" fill="#026BB4"/>
<path d="M13.2451 10.4899C13.1905 10.4496 13.136 10.4093 13.0951 10.3555C12.7133 9.93911 12.3316 9.50925 11.9362 9.09282C11.7999 8.94506 11.8272 8.86446 11.9635 8.74356C12.3861 8.38086 12.7951 8.01817 13.2178 7.64204C13.3541 7.52114 13.4496 7.52114 13.5723 7.65547C13.9404 8.05847 14.3085 8.4749 14.6902 8.87789C14.7857 8.98536 14.8538 9.06596 14.7039 9.18685C14.254 9.57642 13.8177 9.97941 13.3678 10.3824C13.3269 10.4496 13.286 10.463 13.2451 10.4899Z" fill="#076EB5"/>
<path d="M11.8817 4.40481C11.9772 4.39138 12.0181 4.45855 12.059 4.51228C12.4407 4.92871 12.8225 5.35857 13.2178 5.76156C13.3542 5.90933 13.3133 5.98993 13.1769 6.09739C12.7679 6.46009 12.3453 6.82278 11.9363 7.19891C11.7999 7.31981 11.7045 7.31981 11.5818 7.18548C11.2001 6.75562 10.8183 6.33919 10.4502 5.92276C10.3684 5.82873 10.3275 5.74813 10.4366 5.64067C10.8865 5.2511 11.3364 4.84811 11.7863 4.45855C11.8272 4.44511 11.8545 4.41825 11.8817 4.40481Z" fill="#076EB5"/>
<path d="M14.6221 13.7811C14.5266 13.7945 14.4857 13.7274 14.4448 13.6736C14.0631 13.2572 13.6814 12.8274 13.286 12.4109C13.1496 12.2632 13.2042 12.1691 13.3269 12.0751C13.7359 11.7124 14.1585 11.3497 14.5675 10.9736C14.7039 10.8527 14.7993 10.8527 14.922 10.987C15.3038 11.4169 15.6855 11.8333 16.0672 12.2497C16.1491 12.3572 16.19 12.4244 16.0672 12.5318C15.6173 12.9214 15.1674 13.3244 14.7175 13.7274C14.6902 13.7408 14.6493 13.7677 14.6221 13.7811Z" fill="#076EB5"/>
<path d="M16.1218 14.0229C16.2309 14.0364 16.2718 14.1035 16.3263 14.1707C16.6944 14.5737 17.0489 14.9767 17.417 15.3663C17.5397 15.514 17.567 15.6081 17.4033 15.7424C16.9807 16.1051 16.5581 16.4678 16.1491 16.8439C15.9991 16.9917 15.9173 16.9245 15.8082 16.8036C15.4401 16.4006 15.0584 15.9842 14.6766 15.5812C14.5812 15.4737 14.513 15.3797 14.663 15.2722C15.1129 14.8827 15.5628 14.4797 16.0127 14.0767C16.0536 14.0632 16.0809 14.0498 16.1218 14.0229Z" fill="#076EB5"/>
<path d="M16.1763 9.17358C16.0264 9.13328 15.9718 9.03925 15.9037 8.95865C15.6719 8.68999 15.2765 8.43476 15.2629 8.15266C15.2493 7.884 15.7264 7.70936 15.9582 7.45413C16.19 7.18547 16.3263 7.25264 16.5445 7.49443C17.2398 8.28699 17.2534 8.27356 16.4354 8.97208C16.3399 9.03925 16.2581 9.11985 16.1763 9.17358Z" fill="#076EB5"/>
<path d="M15.89 5.18379C15.781 5.26439 15.6855 5.34499 15.5764 5.42559C15.3174 5.64052 15.072 6.03008 14.7993 6.04352C14.5267 6.05695 14.3358 5.58679 14.0904 5.35843C13.845 5.14349 13.8177 4.9823 14.104 4.7808C14.3767 4.5793 14.6221 4.18974 14.8948 4.17631C15.1811 4.16287 15.3583 4.63304 15.6037 4.8614C15.6855 4.942 15.7673 5.03603 15.89 5.18379Z" fill="#076EB5"/>
</svg>
