<svg width="67" height="28" viewBox="0 0 67 28" fill="none" xmlns="http://www.w3.org/2000/svg">
<g clip-path="url(#clip0)">
<path d="M45.458 7.76286C45.7889 7.82964 46.1198 7.89642 46.4375 7.9632C47.0199 8.09676 47.5493 8.33716 48.0126 8.72449C48.6612 9.27208 49.0053 9.9933 49.0583 10.8214C49.1642 12.4241 48.8333 13.9333 47.8935 15.2422C47.0993 16.3507 45.961 16.8983 44.6506 17.1254C43.7108 17.2857 42.771 17.2189 41.8312 17.2322C41.2356 17.2456 41.0106 17.4059 40.9179 17.9935C40.7326 19.1421 40.5473 20.2908 40.3752 21.4394C40.309 21.8267 40.1634 21.9602 39.7928 21.9602C38.9854 21.9602 38.178 21.9602 37.3706 21.9602C36.9735 21.9602 36.8014 21.7733 36.8676 21.3726C37.0529 20.1572 37.2514 18.9552 37.4367 17.7398C37.7279 15.9234 38.0059 14.1069 38.2839 12.2905C38.4824 10.9816 38.6942 9.67276 38.8927 8.36388C38.9325 8.05669 39.1575 7.88306 39.409 7.73615C41.4209 7.76286 43.4328 7.76286 45.458 7.76286ZM42.3342 14.4008C42.6916 14.4008 43.049 14.3874 43.4064 14.3607C44.3594 14.2672 44.9815 13.773 45.1933 12.8782C45.2462 12.6378 45.2859 12.384 45.2992 12.1436C45.3389 11.3823 44.9947 10.9015 44.28 10.7279C43.6578 10.5676 43.0093 10.5943 42.3871 10.621C42.1621 10.6344 42.043 10.7947 42.0033 11.0084C41.8312 12.0768 41.6724 13.1587 41.4871 14.2271C41.4606 14.3874 41.5268 14.4141 41.6591 14.4141C41.8842 14.3874 42.1092 14.4008 42.3342 14.4008Z" fill="#469BDA"/>
<path d="M9.30952 7.76367C9.53454 7.87052 9.77279 7.85716 10.011 7.91059C10.289 7.97737 10.5537 8.04415 10.8185 8.151C12.1289 8.67188 12.8304 9.63351 12.8833 11.0492C12.9363 12.7054 12.5657 14.2547 11.4803 15.5502C10.6993 16.4851 9.65367 16.9392 8.47563 17.1396C7.53585 17.2998 6.58283 17.2331 5.62981 17.2464C5.02094 17.2464 4.80916 17.4334 4.7165 18.0478C4.54443 19.1296 4.38559 20.2114 4.20028 21.2933C4.12087 21.7741 3.86937 21.9878 3.37963 21.9878C2.65163 21.9878 1.93687 21.9878 1.20886 21.9878C0.957374 21.9878 0.758829 21.921 0.626465 21.7073C0.626465 21.5737 0.626465 21.4402 0.626465 21.2933C0.719119 21.1998 0.692647 21.0662 0.719119 20.9594C1.3677 16.8324 2.01628 12.692 2.65163 8.56503C2.71781 8.17771 2.86341 7.91059 3.23403 7.76367C5.25919 7.76367 7.28436 7.76367 9.30952 7.76367ZM6.14603 14.4016C6.50341 14.4016 6.86079 14.3882 7.21818 14.3482C8.02559 14.2547 8.66094 13.9074 8.9389 13.0793C9.04479 12.7454 9.09774 12.4116 9.11098 12.0643C9.11098 11.2896 8.74036 10.8355 7.97265 10.6886C7.40348 10.5818 6.82108 10.5951 6.23868 10.5951C5.98719 10.5951 5.84159 10.7421 5.80188 11.0092C5.62981 12.091 5.47097 13.1595 5.28567 14.228C5.25919 14.3615 5.2989 14.3882 5.41803 14.3882C5.66952 14.3882 5.90777 14.4016 6.14603 14.4016Z" fill="#293C82"/>
<path d="M25.5241 25.2458C25.3123 24.9653 25.352 24.7249 25.5638 24.4445C26.3447 23.3626 27.0859 22.2808 27.8537 21.199C27.9463 21.0654 27.9595 20.9586 27.9066 20.7983C27.0462 18.274 26.1991 15.7497 25.3387 13.2255C25.2726 13.0518 25.2064 12.8648 25.3255 12.6912C25.4314 12.5309 25.5902 12.4909 25.7755 12.4909C26.5168 12.4909 27.258 12.4909 27.9993 12.4909C28.4361 12.4909 28.6743 12.6645 28.7934 13.0919C29.2435 14.5744 29.6803 16.0569 30.1171 17.5394C30.1435 17.6062 30.1568 17.6863 30.1833 17.7665C30.2891 17.7131 30.3156 17.6062 30.3818 17.5261C31.4142 16.0035 32.4467 14.4676 33.4659 12.9316C33.6777 12.6111 33.9291 12.4642 34.313 12.4775C35.041 12.4909 35.7558 12.4775 36.4838 12.4775C36.6823 12.4775 36.8544 12.5176 36.9603 12.7046C37.0662 12.8916 37 13.0652 36.8809 13.2255C34.1939 17.1254 31.5201 21.0253 28.8464 24.9253C28.767 25.0455 28.6478 25.1256 28.5419 25.2325C27.5227 25.2458 26.53 25.2458 25.5241 25.2458Z" fill="#293C82"/>
<path d="M65.9083 8.32383C65.7494 8.63102 65.7627 8.97827 65.7097 9.31217C65.3126 11.783 64.9288 14.2405 64.5449 16.7114C64.3067 18.2473 64.0684 19.7833 63.8169 21.3192C63.7507 21.7599 63.5125 21.9603 63.0624 21.9603C62.4006 21.9603 61.7388 21.9603 61.077 21.9603C60.7196 21.9603 60.5608 21.7599 60.6137 21.3993C60.9843 19.0353 61.3417 16.6713 61.7256 14.3073C62.0168 12.3974 62.3212 10.4875 62.6256 8.57759C62.6653 8.28376 62.6521 7.94986 62.9433 7.76288C63.8037 7.76288 64.6773 7.76288 65.5376 7.76288C65.7097 7.8163 65.8024 7.97657 65.895 8.12349C65.9083 8.19027 65.9083 8.25705 65.9083 8.32383Z" fill="#469BDA"/>
<path d="M20.6663 13.546C20.7061 13.2789 20.7325 13.0785 20.7722 12.8916C20.8119 12.6378 20.9708 12.4909 21.2223 12.4909C22.0165 12.4909 22.7974 12.4909 23.5916 12.4909C23.9225 12.4909 24.0813 12.7179 24.0284 13.0919C23.9093 13.8933 23.7769 14.6946 23.6445 15.496C23.3533 17.3925 23.0489 19.2891 22.7577 21.1856C22.665 21.7733 22.4533 21.9736 21.8709 21.9736C21.2487 21.9736 20.6134 21.9736 19.9781 21.9736C19.528 21.9736 19.3824 21.8134 19.4486 21.3459C19.4751 21.199 19.5148 21.0521 19.5015 20.8918C19.4089 20.8918 19.3692 20.9719 19.3162 21.0254C17.8867 22.214 16.2719 22.5212 14.5379 21.9469C13.1878 21.4795 12.473 20.3976 12.2215 19.022C11.7318 16.2706 13.3996 13.172 16.3513 12.4375C17.2911 12.1971 18.2441 12.2238 19.1706 12.4642C19.7927 12.6111 20.309 12.9049 20.6663 13.546ZM17.5029 19.5963C18.9324 19.5963 20.031 18.648 20.256 17.2189C20.4281 16.097 19.8589 15.1754 18.8265 14.9217C18.4691 14.8282 18.1117 14.8282 17.7411 14.895C16.2189 15.1621 15.2791 16.5912 15.4909 18.0737C15.6365 19.0487 16.4042 19.5963 17.5029 19.5963Z" fill="#293C82"/>
<path d="M55.7029 20.8784C55.5441 21.012 55.4117 21.1322 55.2529 21.2391C53.9028 22.214 52.4335 22.4678 50.8584 21.9736C49.4554 21.5329 48.7009 20.4644 48.4362 19.062C47.9332 16.3508 49.4818 13.3857 52.2879 12.5043C53.3204 12.1837 54.3661 12.1971 55.3985 12.4642C55.9941 12.6245 56.5103 12.9316 56.8413 13.5193C56.9339 13.2923 56.9207 13.0919 56.9736 12.8916C57.0266 12.6378 57.1589 12.5043 57.4237 12.5043C58.2046 12.5043 58.9855 12.5043 59.7665 12.5043C60.1106 12.5043 60.2827 12.7179 60.2298 13.0652C60.1106 13.8666 59.9783 14.6546 59.8591 15.4426C59.5944 17.1388 59.3297 18.835 59.065 20.5312C59.0253 20.825 58.9723 21.1189 58.9194 21.4127C58.8532 21.7466 58.6149 21.9603 58.2708 21.9603C57.5295 21.9736 56.7883 21.9736 56.0471 21.9603C55.7426 21.9603 55.597 21.7599 55.6235 21.4528C55.6632 21.2791 55.7294 21.0921 55.7029 20.8784ZM53.691 19.5963C55.1602 19.5963 56.2853 18.6079 56.4706 17.1254C56.603 16.1237 56.1 15.2689 55.1999 14.9751C54.7764 14.8415 54.3528 14.8148 53.916 14.895C52.3277 15.1754 51.4276 16.698 51.6923 18.1405C51.8644 19.062 52.6189 19.5963 53.691 19.5963Z" fill="#469BDA"/>
</g>
<defs>
<clipPath id="clip0">
<rect width="66.1818" height="26.7119" fill="white" transform="translate(0.176392 0.777649)"/>
</clipPath>
</defs>
</svg>
